<svg width="41" height="41" viewBox="0 0 41 41" fill="none" xmlns="http://www.w3.org/2000/svg">
<path d="M20.5013 28.7878C19.6172 28.7878 18.7694 28.4366 18.1443 27.8114C17.5192 27.1863 17.168 26.3385 17.168 25.4544C17.168 23.6044 18.6513 22.1211 20.5013 22.1211C21.3854 22.1211 22.2332 22.4723 22.8583 23.0974C23.4834 23.7225 23.8346 24.5704 23.8346 25.4544C23.8346 26.3385 23.4834 27.1863 22.8583 27.8114C22.2332 28.4366 21.3854 28.7878 20.5013 28.7878ZM30.5013 33.7878V17.1211H10.5013V33.7878H30.5013ZM30.5013 13.7878C31.3854 13.7878 32.2332 14.139 32.8583 14.7641C33.4834 15.3892 33.8346 16.237 33.8346 17.1211V33.7878C33.8346 34.6718 33.4834 35.5197 32.8583 36.1448C32.2332 36.7699 31.3854 37.1211 30.5013 37.1211H10.5013C9.61725 37.1211 8.7694 36.7699 8.14428 36.1448C7.51916 35.5197 7.16797 34.6718 7.16797 33.7878V17.1211C7.16797 15.2711 8.6513 13.7878 10.5013 13.7878H12.168V10.4544C12.168 8.24429 13.0459 6.12467 14.6087 4.56187C16.1715 2.99907 18.2912 2.12109 20.5013 2.12109C21.5957 2.12109 22.6793 2.33664 23.6903 2.75543C24.7014 3.17422 25.62 3.78805 26.3939 4.56187C27.1677 5.33569 27.7815 6.25435 28.2003 7.2654C28.6191 8.27644 28.8346 9.36008 28.8346 10.4544V13.7878H30.5013ZM20.5013 5.45443C19.1752 5.45443 17.9034 5.98121 16.9658 6.91889C16.0281 7.85658 15.5013 9.12834 15.5013 10.4544V13.7878H25.5013V10.4544C25.5013 9.12834 24.9745 7.85658 24.0368 6.91889C23.0992 5.98121 21.8274 5.45443 20.5013 5.45443Z" fill="url(#paint0_linear_273_4087)"/>
<defs>
<linearGradient id="paint0_linear_273_4087" x1="40.2357" y1="-13.7538" x2="3.87026" y2="15.633" gradientUnits="userSpaceOnUse">
<stop stop-color="#FBC524"/>
<stop offset="0.52" stop-color="#E939D9"/>
<stop offset="1" stop-color="#2ABAE9"/>
</linearGradient>
</defs>
</svg>
