<svg width="41" height="40" viewBox="0 0 41 40" fill="none" xmlns="http://www.w3.org/2000/svg">
<g clip-path="url(#clip0_273_4094)">
<path d="M33.8393 23.209C34.2641 23.2095 34.6727 23.3681 34.9816 23.6524C35.2905 23.9367 35.4764 24.3253 35.5013 24.7388C35.5261 25.1522 35.3882 25.5594 35.1155 25.877C34.8429 26.1946 34.4561 26.3987 34.0343 26.4476L33.8393 26.459H11.196L15.0176 30.1851C15.3165 30.4776 15.4901 30.87 15.503 31.2826C15.5159 31.6953 15.3673 32.0973 15.0872 32.407C14.8072 32.7166 14.4167 32.9108 13.9952 32.9499C13.5736 32.9891 13.1526 32.8703 12.8176 32.6178L12.661 32.4829L6.27763 26.2591C5.1693 25.1801 5.8793 23.3618 7.38263 23.2188L7.5743 23.209H33.8393ZM25.9943 7.43513C26.2813 7.15534 26.6631 6.98727 27.0682 6.96243C27.4732 6.9376 27.8736 7.05772 28.1943 7.30025L28.351 7.43513L34.7343 13.6589C35.8426 14.7379 35.1326 16.5563 33.6293 16.6993L33.4376 16.709H7.17263C6.74783 16.7085 6.33925 16.55 6.03035 16.2656C5.72146 15.9813 5.53557 15.5927 5.51068 15.1792C5.48578 14.7658 5.62376 14.3586 5.89641 14.041C6.16906 13.7234 6.55581 13.5193 6.97763 13.4704L7.17263 13.459H29.816L25.9943 9.73288C25.6818 9.42815 25.5063 9.01489 25.5063 8.584C25.5063 8.15311 25.6818 7.73986 25.9943 7.43513Z" fill="url(#paint0_linear_273_4094)"/>
</g>
<defs>
<linearGradient id="paint0_linear_273_4094" x1="42.7045" y1="-4.83262" x2="15.6304" y2="28.299" gradientUnits="userSpaceOnUse">
<stop stop-color="#FBC524"/>
<stop offset="0.52" stop-color="#E939D9"/>
<stop offset="1" stop-color="#2ABAE9"/>
</linearGradient>
<clipPath id="clip0_273_4094">
<rect width="40" height="39" fill="white" transform="translate(0.507812 0.458984)"/>
</clipPath>
</defs>
</svg>
