<svg width="148" height="123" viewBox="0 0 148 123" fill="none" xmlns="http://www.w3.org/2000/svg">
<path fill-rule="evenodd" clip-rule="evenodd" d="M86.7921 2.10267C69.1948 4.08802 60.6412 22.4811 49.8293 36.5064C39.3865 50.0528 24.2721 62.7429 27.0327 79.623C29.9123 97.2316 46.4378 108.687 62.7981 115.807C78.2818 122.546 95.5554 123.087 110.948 116.143C126.863 108.963 139.491 95.8994 144.194 79.0849C149.195 61.2046 147.035 41.6757 135.937 26.7916C124.407 11.3293 105.958 -0.0596633 86.7921 2.10267Z" stroke="url(#paint0_linear_3616_714)" stroke-width="2"/>
<rect x="0.949219" y="39.6729" width="3.49443" height="3.79851" rx="1" fill="#D9D9D9"/>
<rect x="0.949219" y="50.7643" width="3.49443" height="3.79851" rx="1" fill="#D9D9D9"/>
<rect x="0.949219" y="61.8557" width="3.49443" height="3.79851" rx="1" fill="#D9D9D9"/>
<rect x="0.949219" y="72.9473" width="3.49443" height="3.79851" rx="1" fill="#D9D9D9"/>
<rect x="0.949219" y="84.0387" width="3.49443" height="3.79851" rx="1" fill="#D9D9D9"/>
<rect x="0.949219" y="95.1301" width="3.49443" height="3.79851" rx="1" fill="#D9D9D9"/>
<rect x="0.949219" y="106.222" width="3.49443" height="3.79851" rx="1" fill="#D9D9D9"/>
<rect x="0.949219" y="117.313" width="3.49443" height="3.79851" rx="1" fill="#D9D9D9"/>
<rect x="12.9531" y="39.6729" width="3.49443" height="3.79851" rx="1" fill="#D9D9D9"/>
<rect x="12.9531" y="50.7642" width="3.49443" height="3.79851" rx="1" fill="#D9D9D9"/>
<rect x="12.9531" y="61.8557" width="3.49443" height="3.79851" rx="1" fill="#D9D9D9"/>
<rect x="12.9531" y="72.9473" width="3.49443" height="3.79851" rx="1" fill="#D9D9D9"/>
<rect x="12.9531" y="84.0386" width="3.49443" height="3.79851" rx="1" fill="#D9D9D9"/>
<rect x="12.9531" y="95.1301" width="3.49443" height="3.79851" rx="1" fill="#D9D9D9"/>
<rect x="12.9531" y="106.222" width="3.49443" height="3.79851" rx="1" fill="#D9D9D9"/>
<rect x="12.9531" y="117.313" width="3.49443" height="3.79851" rx="1" fill="#D9D9D9"/>
<rect x="24.9531" y="39.6729" width="3.49443" height="3.79851" rx="1" fill="#D9D9D9"/>
<rect x="24.9531" y="50.7642" width="3.49443" height="3.79851" rx="1" fill="#D9D9D9"/>
<rect x="24.9531" y="61.8557" width="3.49443" height="3.79851" rx="1" fill="#D9D9D9"/>
<rect x="24.9531" y="72.9473" width="3.49443" height="3.79851" rx="1" fill="#D9D9D9"/>
<rect x="24.9531" y="84.0386" width="3.49443" height="3.79851" rx="1" fill="#D9D9D9"/>
<rect x="24.9531" y="95.1301" width="3.49443" height="3.79851" rx="1" fill="#D9D9D9"/>
<rect x="24.9531" y="106.222" width="3.49443" height="3.79851" rx="1" fill="#D9D9D9"/>
<rect x="24.9531" y="117.313" width="3.49443" height="3.79851" rx="1" fill="#D9D9D9"/>
<rect x="36.957" y="39.6729" width="3.49443" height="3.79851" rx="1" fill="#D9D9D9"/>
<rect x="36.957" y="50.7642" width="3.49443" height="3.79851" rx="1" fill="#D9D9D9"/>
<rect x="36.957" y="61.8557" width="3.49443" height="3.79851" rx="1" fill="#D9D9D9"/>
<rect x="36.957" y="72.9473" width="3.49443" height="3.79851" rx="1" fill="#D9D9D9"/>
<rect x="36.957" y="84.0386" width="3.49443" height="3.79851" rx="1" fill="#D9D9D9"/>
<rect x="36.957" y="95.1301" width="3.49443" height="3.79851" rx="1" fill="#D9D9D9"/>
<rect x="36.957" y="106.222" width="3.49443" height="3.79851" rx="1" fill="#D9D9D9"/>
<rect x="36.957" y="117.313" width="3.49443" height="3.79851" rx="1" fill="#D9D9D9"/>
<rect x="48.9609" y="39.6729" width="3.49443" height="3.79851" rx="1" fill="#D9D9D9"/>
<rect x="48.9609" y="50.7643" width="3.49443" height="3.79851" rx="1" fill="#D9D9D9"/>
<rect x="48.9609" y="61.8557" width="3.49443" height="3.79851" rx="1" fill="#D9D9D9"/>
<rect x="48.9609" y="72.9473" width="3.49443" height="3.79851" rx="1" fill="#D9D9D9"/>
<rect x="48.9609" y="84.0387" width="3.49443" height="3.79851" rx="1" fill="#D9D9D9"/>
<rect x="48.9609" y="95.1301" width="3.49443" height="3.79851" rx="1" fill="#D9D9D9"/>
<rect x="48.9609" y="106.222" width="3.49443" height="3.79851" rx="1" fill="#D9D9D9"/>
<rect x="48.9609" y="117.313" width="3.49443" height="3.79851" rx="1" fill="#D9D9D9"/>
<defs>
<linearGradient id="paint0_linear_3616_714" x1="-2.11298" y1="-52.2594" x2="124.367" y2="82.7523" gradientUnits="userSpaceOnUse">
<stop stop-color="#FBC524"/>
<stop offset="0.52" stop-color="#E939D9"/>
<stop offset="1" stop-color="#2ABAE9"/>
</linearGradient>
</defs>
</svg>
