<svg width="49" height="275" viewBox="0 0 49 275" fill="none" xmlns="http://www.w3.org/2000/svg">
<path d="M43.5917 2.74634C43.5917 1.27358 44.7856 0.0796738 46.2584 0.0796738C47.7311 0.0796738 48.925 1.27358 48.925 2.74634C48.925 4.2191 47.7311 5.41301 46.2584 5.41301C44.7856 5.41301 43.5917 4.2191 43.5917 2.74634ZM45.989 128.168C44.8383 127.432 43.6695 126.644 42.4903 125.807L43.0694 124.991C44.2356 125.82 45.3909 126.598 46.5277 127.325L45.989 128.168ZM35.8195 120.594C33.7316 118.807 31.6553 116.876 29.6322 114.808L30.3469 114.109C32.3486 116.155 34.4033 118.066 36.4697 119.835L35.8195 120.594ZM23.9946 108.493C22.2345 106.325 20.5554 104.045 18.9917 101.661L19.8278 101.113C21.3719 103.467 23.0309 105.719 24.771 107.863L23.9946 108.493ZM14.7429 94.3302C13.4763 91.8228 12.35 89.2239 11.3958 86.5405L12.338 86.2054C13.2773 88.8469 14.3866 91.4071 15.6355 93.8793L14.7429 94.3302ZM9.10709 78.3724C8.54447 75.637 8.16993 72.8299 8.01152 69.9576L9.01001 69.9026C9.16561 72.724 9.53355 75.4821 10.0866 78.171L9.10709 78.3724ZM8.18155 61.4699C8.44252 58.7262 8.90788 55.9338 9.59887 53.0975L10.5705 53.3342C9.89079 56.124 9.43346 58.869 9.17705 61.5646L8.18155 61.4699ZM12.1463 45.0305C13.133 42.4894 14.3061 39.9191 15.6796 37.3226L16.5636 37.7902C15.2076 40.3536 14.0507 42.8887 13.0785 45.3924L12.1463 45.0305ZM20.0102 30.0619C21.52 27.7897 23.1873 25.5005 25.0211 23.1961L25.8036 23.8187C23.9868 26.1018 22.3364 28.368 20.8431 30.6153L20.0102 30.0619ZM30.5028 16.8088C32.3425 14.812 34.3103 12.8052 36.4119 10.7899L37.1041 11.5117C35.0167 13.5133 33.0634 15.5053 31.2383 17.4864L30.5028 16.8088ZM42.6612 5.11636C43.726 4.19898 44.8192 3.28008 45.9413 2.35974L46.5754 3.13293C45.4595 4.04825 44.3725 4.96197 43.3139 5.87397L42.6612 5.11636Z" fill="#2ABAE9"/>
<path d="M43.5917 272.176C43.5917 270.704 44.7856 269.51 46.2583 269.51C47.7311 269.51 48.925 270.704 48.925 272.176C48.925 273.649 47.7311 274.843 46.2583 274.843C44.7856 274.843 43.5917 273.649 43.5917 272.176ZM43.5917 127.746C43.5917 126.274 44.7856 125.08 46.2583 125.08C47.7311 125.08 48.925 126.274 48.925 127.746C48.925 129.219 47.7311 130.413 46.2583 130.413C44.7856 130.413 43.5917 129.219 43.5917 127.746ZM45.9977 272.603C44.8715 271.915 43.731 271.188 42.581 270.422L43.1352 269.59C44.2745 270.348 45.4041 271.069 46.519 271.75L45.9977 272.603ZM35.9986 265.682C33.9162 264.065 31.8332 262.333 29.7776 260.491L30.445 259.746C32.4826 261.572 34.5475 263.289 36.6117 264.892L35.9986 265.682ZM23.9382 254.867C22.0797 252.942 20.2692 250.924 18.5302 248.818L19.3012 248.182C21.023 250.266 22.8163 252.265 24.6577 254.173L23.9382 254.867ZM13.6238 242.351C12.0884 240.136 10.6425 237.843 9.30821 235.475L10.1794 234.984C11.4977 237.323 12.9268 239.59 14.4456 241.781L13.6238 242.351ZM5.68392 228.206C4.60789 225.732 3.6613 223.189 2.86516 220.583L3.82153 220.291C4.60605 222.859 5.53932 225.366 6.60099 227.808L5.68392 228.206ZM0.966454 212.678C0.503498 210.039 0.201034 207.344 0.0780637 204.599L1.07706 204.554C1.19806 207.255 1.49568 209.907 1.95142 212.505L0.966454 212.678ZM0.245675 196.454C0.471967 193.82 0.868599 191.145 1.45052 188.435L2.42825 188.644C1.85511 191.314 1.4647 193.947 1.24201 196.54L0.245675 196.454ZM3.63271 180.586C4.47998 178.106 5.48625 175.6 6.66203 173.07L7.56888 173.492C6.40759 175.991 5.41458 178.464 4.57901 180.91L3.63271 180.586ZM10.4256 165.893C11.7463 163.632 13.2055 161.355 14.8103 159.062L15.6295 159.636C14.0399 161.907 12.5955 164.161 11.289 166.397L10.4256 165.893ZM19.7046 152.588C21.3552 150.556 23.1227 148.513 25.012 146.46L25.7477 147.138C23.8719 149.175 22.1179 151.203 20.4808 153.218L19.7046 152.588ZM30.655 140.659C32.5288 138.832 34.501 136.998 36.575 135.158L37.2386 135.906C35.176 137.736 33.2153 139.559 31.3532 141.375L30.655 140.659ZM42.7307 129.926C43.7811 129.07 44.8541 128.212 45.9499 127.353L46.5668 128.14C45.476 128.995 44.408 129.849 43.3626 130.701L42.7307 129.926Z" fill="#2ABAE9"/>
</svg>
