<svg width="52" height="82" viewBox="0 0 52 82" fill="none" xmlns="http://www.w3.org/2000/svg">
<rect width="3.49443" height="3.79851" rx="1" fill="#D9D9D9"/>
<rect y="11.0914" width="3.49443" height="3.79851" rx="1" fill="#D9D9D9"/>
<rect y="22.1829" width="3.49443" height="3.79851" rx="1" fill="#D9D9D9"/>
<rect y="33.2744" width="3.49443" height="3.79851" rx="1" fill="#D9D9D9"/>
<rect y="44.3658" width="3.49443" height="3.79851" rx="1" fill="#D9D9D9"/>
<rect y="55.4573" width="3.49443" height="3.79851" rx="1" fill="#D9D9D9"/>
<rect y="66.5488" width="3.49443" height="3.79851" rx="1" fill="#D9D9D9"/>
<rect y="77.6401" width="3.49443" height="3.79851" rx="1" fill="#D9D9D9"/>
<rect x="12.0039" width="3.49443" height="3.79851" rx="1" fill="#D9D9D9"/>
<rect x="12.0039" y="11.0914" width="3.49443" height="3.79851" rx="1" fill="#D9D9D9"/>
<rect x="12.0039" y="22.1829" width="3.49443" height="3.79851" rx="1" fill="#D9D9D9"/>
<rect x="12.0039" y="33.2744" width="3.49443" height="3.79851" rx="1" fill="#D9D9D9"/>
<rect x="12.0039" y="44.3658" width="3.49443" height="3.79851" rx="1" fill="#D9D9D9"/>
<rect x="12.0039" y="55.4573" width="3.49443" height="3.79851" rx="1" fill="#D9D9D9"/>
<rect x="12.0039" y="66.5488" width="3.49443" height="3.79851" rx="1" fill="#D9D9D9"/>
<rect x="12.0039" y="77.6401" width="3.49443" height="3.79851" rx="1" fill="#D9D9D9"/>
<rect x="24.0078" width="3.49443" height="3.79851" rx="1" fill="#D9D9D9"/>
<rect x="24.0078" y="11.0914" width="3.49443" height="3.79851" rx="1" fill="#D9D9D9"/>
<rect x="24.0078" y="22.1829" width="3.49443" height="3.79851" rx="1" fill="#D9D9D9"/>
<rect x="24.0078" y="33.2744" width="3.49443" height="3.79851" rx="1" fill="#D9D9D9"/>
<rect x="24.0078" y="44.3658" width="3.49443" height="3.79851" rx="1" fill="#D9D9D9"/>
<rect x="24.0078" y="55.4573" width="3.49443" height="3.79851" rx="1" fill="#D9D9D9"/>
<rect x="24.0078" y="66.5488" width="3.49443" height="3.79851" rx="1" fill="#D9D9D9"/>
<rect x="24.0078" y="77.6401" width="3.49443" height="3.79851" rx="1" fill="#D9D9D9"/>
<rect x="36.0078" width="3.49443" height="3.79851" rx="1" fill="#D9D9D9"/>
<rect x="36.0078" y="11.0914" width="3.49443" height="3.79851" rx="1" fill="#D9D9D9"/>
<rect x="36.0078" y="22.1829" width="3.49443" height="3.79851" rx="1" fill="#D9D9D9"/>
<rect x="36.0078" y="33.2744" width="3.49443" height="3.79851" rx="1" fill="#D9D9D9"/>
<rect x="36.0078" y="44.3658" width="3.49443" height="3.79851" rx="1" fill="#D9D9D9"/>
<rect x="36.0078" y="55.4573" width="3.49443" height="3.79851" rx="1" fill="#D9D9D9"/>
<rect x="36.0078" y="66.5488" width="3.49443" height="3.79851" rx="1" fill="#D9D9D9"/>
<rect x="36.0078" y="77.6401" width="3.49443" height="3.79851" rx="1" fill="#D9D9D9"/>
<rect x="48.0117" width="3.49443" height="3.79851" rx="1" fill="#D9D9D9"/>
<rect x="48.0117" y="11.0914" width="3.49443" height="3.79851" rx="1" fill="#D9D9D9"/>
<rect x="48.0117" y="22.1829" width="3.49443" height="3.79851" rx="1" fill="#D9D9D9"/>
<rect x="48.0117" y="33.2744" width="3.49443" height="3.79851" rx="1" fill="#D9D9D9"/>
<rect x="48.0117" y="44.3658" width="3.49443" height="3.79851" rx="1" fill="#D9D9D9"/>
<rect x="48.0117" y="55.4573" width="3.49443" height="3.79851" rx="1" fill="#D9D9D9"/>
<rect x="48.0117" y="66.5488" width="3.49443" height="3.79851" rx="1" fill="#D9D9D9"/>
<rect x="48.0117" y="77.6401" width="3.49443" height="3.79851" rx="1" fill="#D9D9D9"/>
</svg>
