<svg width="171" height="57" viewBox="0 0 171 57" fill="none" xmlns="http://www.w3.org/2000/svg">
<path d="M45.1882 5.70985L15.4853 5.69971C11.4766 5.69826 9.46937 10.5446 12.3027 13.3794C13.1491 14.2258 14.2969 14.6997 15.494 14.6968L36.2476 14.6504L36.2012 35.4041C36.1983 36.6012 36.6723 37.749 37.5186 38.5954C40.3534 41.4301 45.1998 39.4214 45.1983 35.4128L45.1882 5.70985Z" fill="white"/>
<path d="M29.8085 17.9881L17.1215 30.6751C16.2824 31.5128 16.2824 32.8722 17.1215 33.7113C17.5404 34.1302 18.0897 34.3403 18.6389 34.3403C19.1882 34.3403 19.7375 34.1302 20.1563 33.7113L32.8433 21.0244C33.681 20.1852 33.681 18.8273 32.8433 17.9881C32.007 17.1504 30.6476 17.1504 29.8085 17.9881Z" fill="white"/>
<path d="M21.3358 17.6374C20.4981 16.7983 19.1387 16.7983 18.2996 17.6374L5.61264 30.3244C4.77495 31.1635 4.77495 32.5215 5.61264 33.3606C6.03148 33.7794 6.58075 33.9896 7.13003 33.9896C7.6793 33.9896 8.22858 33.7794 8.64742 33.3606L21.3344 20.6736C22.1735 19.8345 22.1735 18.4751 21.3358 17.6374Z" fill="white"/>
<path d="M29.5769 29.3475L16.89 42.0345C16.0523 42.8721 16.0523 44.2316 16.89 45.0707C17.3088 45.4895 17.8581 45.6997 18.4074 45.6997C18.9566 45.6997 19.5059 45.4895 19.9248 45.0707L32.6117 32.3837C33.4508 31.546 33.4508 30.1866 32.6117 29.3475C31.774 28.5098 30.4146 28.5098 29.5769 29.3475Z" fill="white"/>
<path d="M85.3318 13.4341L81.0863 29.2297L76.5237 13.4341H73.4627L68.872 29.2297L64.6266 13.4341H61.1328L66.8501 33.6486H70.6908L74.9941 18.892L79.2676 33.6486H83.1083L88.8256 13.4341H85.3318Z" fill="white"/>
<path d="M96.3072 18.834C94.1696 18.834 92.3707 19.5658 90.9071 21.0294C89.4253 22.5128 88.6836 24.3117 88.6836 26.4295C88.6836 28.5473 89.4253 30.3478 90.9071 31.8296C92.3707 33.2932 94.1696 34.025 96.3072 34.025C98.4448 34.025 100.244 33.2932 101.707 31.8296C103.189 30.3478 103.931 28.5473 103.931 26.4295C103.931 24.3117 103.189 22.5128 101.707 21.0294C100.244 19.5658 98.4431 18.834 96.3072 18.834ZM99.5119 29.692C98.6463 30.5576 97.5775 30.9921 96.3072 30.9921C95.0369 30.9921 93.9681 30.5593 93.1025 29.692C92.2369 28.8248 91.8024 27.7378 91.8024 26.4295C91.8024 25.1212 92.2352 24.0326 93.1025 23.167C93.9681 22.3014 95.0369 21.8669 96.3072 21.8669C97.5775 21.8669 98.6463 22.2997 99.5119 23.167C100.379 24.0326 100.812 25.1212 100.812 26.4295C100.812 27.7395 100.378 28.8264 99.5119 29.692Z" fill="white"/>
<path d="M109.877 21.636V19.211H106.758V33.6488H109.877V26.3721C109.877 24.8903 110.319 23.8314 111.205 23.1954C112.11 22.5413 113.149 22.2522 114.324 22.3298V18.9517C112.146 18.95 110.665 19.8453 109.877 21.636Z" fill="white"/>
<path d="M129.166 19.2108H125.353L119.752 25.5922V13.4341H116.633V33.6486H119.752V26.9782L125.67 33.6486H129.396L122.813 26.2843L129.166 19.2108Z" fill="white"/>
<path d="M143.491 26.7469C143.491 27.999 143.119 28.9852 142.379 29.7071C141.637 30.429 140.564 30.7908 139.159 30.7908C137.754 30.7908 136.68 30.429 135.94 29.7071C135.198 28.9852 134.828 27.999 134.828 26.7469V13.4341H131.508V26.9484C131.508 29.086 132.22 30.8089 133.645 32.1173C135.051 33.3876 136.89 34.0236 139.161 34.0236C141.433 34.0236 143.271 33.3876 144.677 32.1173C146.101 30.8089 146.814 29.0843 146.814 26.9484V13.4341H143.494V26.7469H143.491Z" fill="white"/>
<path d="M163.677 21.0575C162.251 19.5757 160.558 18.834 158.594 18.834C156.399 18.834 154.715 19.6533 153.541 21.2887V19.209H150.422V39.4235H153.541V31.5983C154.733 33.2156 156.418 34.0234 158.594 34.0234C160.576 34.0234 162.271 33.2916 163.677 31.828C165.081 30.3644 165.785 28.5654 165.785 26.4278C165.785 24.3117 165.083 22.5211 163.677 21.0575ZM161.367 29.7499C160.5 30.6155 159.413 31.0499 158.105 31.0499C156.795 31.0499 155.708 30.6171 154.842 29.7499C153.977 28.8446 153.542 27.7378 153.542 26.4295C153.542 25.1014 153.975 24.0045 154.842 23.1372C155.708 22.2518 156.797 21.8091 158.105 21.8091C159.413 21.8091 160.502 22.2518 161.367 23.1372C162.233 24.0028 162.668 25.1014 162.668 26.4295C162.668 27.7576 162.233 28.8644 161.367 29.7499Z" fill="white"/>
</svg>
