<svg width="63" height="63" viewBox="0 0 63 63" fill="none" xmlns="http://www.w3.org/2000/svg">
<g filter="url(#filter0_d_273_2402)">
<circle cx="31.7227" cy="27.166" r="17" fill="#FAFAFA"/>
</g>
<g clip-path="url(#clip0_273_2402)">
<path d="M35.2037 20.166H29.2416C27.3012 20.166 25.7227 21.7446 25.7227 23.685V29.6471C25.7227 31.5874 27.3012 33.166 29.2416 33.166H35.2038C37.1441 33.166 38.7226 31.5874 38.7226 29.6471V23.685C38.7226 21.7446 37.1441 20.166 35.2037 20.166V20.166ZM37.9605 29.6471C37.9605 31.1672 36.7238 32.4039 35.2037 32.4039H29.2416C27.7215 32.4039 26.4848 31.1672 26.4848 29.6471V23.685C26.4848 22.1648 27.7215 20.9281 29.2416 20.9281H35.2038C36.7238 20.9281 37.9605 22.1648 37.9605 23.685V29.6471Z" fill="#1A202C"/>
<path d="M32.2225 23.1113C30.2625 23.1113 28.668 24.7059 28.668 26.6659C28.668 28.6259 30.2625 30.2205 32.2225 30.2205C34.1826 30.2205 35.7771 28.6259 35.7771 26.6659C35.7771 24.7059 34.1826 23.1113 32.2225 23.1113ZM32.2225 29.4584C30.6828 29.4584 29.4301 28.2057 29.4301 26.6659C29.4301 25.1262 30.6828 23.8734 32.2225 23.8734C33.7623 23.8734 35.015 25.1262 35.015 26.6659C35.015 28.2057 33.7623 29.4584 32.2225 29.4584Z" fill="#1A202C"/>
<path d="M35.8628 21.8491C35.2836 21.8491 34.8125 22.3203 34.8125 22.8995C34.8125 23.4787 35.2836 23.9499 35.8628 23.9499C36.4421 23.9499 36.9133 23.4787 36.9133 22.8995C36.9133 22.3202 36.4421 21.8491 35.8628 21.8491ZM35.8628 23.1877C35.7039 23.1877 35.5746 23.0583 35.5746 22.8995C35.5746 22.7405 35.7039 22.6112 35.8628 22.6112C36.0218 22.6112 36.1512 22.7405 36.1512 22.8995C36.1512 23.0583 36.0218 23.1877 35.8628 23.1877Z" fill="#1A202C"/>
</g>
<defs>
<filter id="filter0_d_273_2402" x="0.722656" y="0.166016" width="62" height="62" filterUnits="userSpaceOnUse" color-interpolation-filters="sRGB">
<feFlood flood-opacity="0" result="BackgroundImageFix"/>
<feColorMatrix in="SourceAlpha" type="matrix" values="0 0 0 0 0 0 0 0 0 0 0 0 0 0 0 0 0 0 127 0" result="hardAlpha"/>
<feOffset dy="4"/>
<feGaussianBlur stdDeviation="7"/>
<feColorMatrix type="matrix" values="0 0 0 0 0 0 0 0 0 0 0 0 0 0 0 0 0 0 0.15 0"/>
<feBlend mode="normal" in2="BackgroundImageFix" result="effect1_dropShadow_273_2402"/>
<feBlend mode="normal" in="SourceGraphic" in2="effect1_dropShadow_273_2402" result="shape"/>
</filter>
<clipPath id="clip0_273_2402">
<rect width="13" height="13" fill="white" transform="translate(25.7227 20.166)"/>
</clipPath>
</defs>
</svg>
