<svg width="196" height="270" viewBox="0 0 196 270" fill="none" xmlns="http://www.w3.org/2000/svg">
<rect x="66.8594" y="188.185" width="3.49443" height="3.79851" rx="1" fill="#D9D9D9"/>
<rect x="66.8594" y="199.276" width="3.49443" height="3.79851" rx="1" fill="#D9D9D9"/>
<rect x="66.8594" y="210.368" width="3.49443" height="3.79851" rx="1" fill="#D9D9D9"/>
<rect x="66.8594" y="221.459" width="3.49443" height="3.79851" rx="1" fill="#D9D9D9"/>
<rect x="66.8594" y="232.551" width="3.49443" height="3.79851" rx="1" fill="#D9D9D9"/>
<rect x="66.8594" y="243.642" width="3.49443" height="3.79851" rx="1" fill="#D9D9D9"/>
<rect x="66.8594" y="254.734" width="3.49443" height="3.79851" rx="1" fill="#D9D9D9"/>
<rect x="66.8594" y="265.825" width="3.49443" height="3.79851" rx="1" fill="#D9D9D9"/>
<rect x="78.8633" y="188.185" width="3.49443" height="3.79851" rx="1" fill="#D9D9D9"/>
<rect x="78.8633" y="199.276" width="3.49443" height="3.79851" rx="1" fill="#D9D9D9"/>
<rect x="78.8633" y="210.368" width="3.49443" height="3.79851" rx="1" fill="#D9D9D9"/>
<rect x="78.8633" y="221.459" width="3.49443" height="3.79851" rx="1" fill="#D9D9D9"/>
<rect x="78.8633" y="232.551" width="3.49443" height="3.79851" rx="1" fill="#D9D9D9"/>
<rect x="78.8633" y="243.642" width="3.49443" height="3.79851" rx="1" fill="#D9D9D9"/>
<rect x="78.8633" y="254.734" width="3.49443" height="3.79851" rx="1" fill="#D9D9D9"/>
<rect x="78.8633" y="265.825" width="3.49443" height="3.79851" rx="1" fill="#D9D9D9"/>
<rect x="90.8672" y="188.185" width="3.49443" height="3.79851" rx="1" fill="#D9D9D9"/>
<rect x="90.8672" y="199.276" width="3.49443" height="3.79851" rx="1" fill="#D9D9D9"/>
<rect x="90.8672" y="210.368" width="3.49443" height="3.79851" rx="1" fill="#D9D9D9"/>
<rect x="90.8672" y="221.459" width="3.49443" height="3.79851" rx="1" fill="#D9D9D9"/>
<rect x="90.8672" y="232.551" width="3.49443" height="3.79851" rx="1" fill="#D9D9D9"/>
<rect x="90.8672" y="243.642" width="3.49443" height="3.79851" rx="1" fill="#D9D9D9"/>
<rect x="90.8672" y="254.734" width="3.49443" height="3.79851" rx="1" fill="#D9D9D9"/>
<rect x="90.8672" y="265.825" width="3.49443" height="3.79851" rx="1" fill="#D9D9D9"/>
<rect x="102.867" y="188.185" width="3.49443" height="3.79851" rx="1" fill="#D9D9D9"/>
<rect x="102.867" y="199.276" width="3.49443" height="3.79851" rx="1" fill="#D9D9D9"/>
<rect x="102.867" y="210.368" width="3.49443" height="3.79851" rx="1" fill="#D9D9D9"/>
<rect x="102.867" y="221.459" width="3.49443" height="3.79851" rx="1" fill="#D9D9D9"/>
<rect x="102.867" y="232.551" width="3.49443" height="3.79851" rx="1" fill="#D9D9D9"/>
<rect x="102.867" y="243.642" width="3.49443" height="3.79851" rx="1" fill="#D9D9D9"/>
<rect x="102.867" y="254.734" width="3.49443" height="3.79851" rx="1" fill="#D9D9D9"/>
<rect x="102.867" y="265.825" width="3.49443" height="3.79851" rx="1" fill="#D9D9D9"/>
<rect x="114.871" y="188.185" width="3.49443" height="3.79851" rx="1" fill="#D9D9D9"/>
<rect x="114.871" y="199.276" width="3.49443" height="3.79851" rx="1" fill="#D9D9D9"/>
<rect x="114.871" y="210.368" width="3.49443" height="3.79851" rx="1" fill="#D9D9D9"/>
<rect x="114.871" y="221.459" width="3.49443" height="3.79851" rx="1" fill="#D9D9D9"/>
<rect x="114.871" y="232.551" width="3.49443" height="3.79851" rx="1" fill="#D9D9D9"/>
<rect x="114.871" y="243.642" width="3.49443" height="3.79851" rx="1" fill="#D9D9D9"/>
<rect x="114.871" y="254.734" width="3.49443" height="3.79851" rx="1" fill="#D9D9D9"/>
<rect x="114.871" y="265.825" width="3.49443" height="3.79851" rx="1" fill="#D9D9D9"/>
<path fill-rule="evenodd" clip-rule="evenodd" d="M97.8285 1.42227C125.996 4.60019 139.688 34.0418 156.994 56.4918C173.71 78.1755 197.904 98.4883 193.485 125.508C188.875 153.694 162.423 172.031 136.235 183.428C111.451 194.214 83.8013 195.081 59.1628 183.965C33.6878 172.472 13.4733 151.562 5.94597 124.647C-2.05846 96.026 1.39806 64.7663 19.1631 40.9415C37.6182 16.1912 67.1497 -2.03895 97.8285 1.42227Z" stroke="url(#paint0_linear_3618_717)" stroke-width="2"/>
<defs>
<linearGradient id="paint0_linear_3618_717" x1="240.138" y1="-85.5944" x2="37.6825" y2="130.517" gradientUnits="userSpaceOnUse">
<stop stop-color="#FBC524"/>
<stop offset="0.52" stop-color="#E939D9"/>
<stop offset="1" stop-color="#2ABAE9"/>
</linearGradient>
</defs>
</svg>
