<svg width="33" height="37" viewBox="0 0 33 37" fill="none" xmlns="http://www.w3.org/2000/svg">
<path fill-rule="evenodd" clip-rule="evenodd" d="M3.73559 0.188798C3.62808 0.321464 3.57186 2.71465 3.54683 8.22596L3.51137 16.0743L2.04106 16.0484C-0.212176 16.0089 0.00572317 15.1655 0.00572317 23.9256C0.00572317 28.7058 0.0552146 31.3449 0.148011 31.5226C0.276551 31.7684 0.449634 31.7947 1.9352 31.7947H3.5801V34.2285C3.5801 35.9339 3.62946 36.7129 3.74507 36.8312C3.871 36.96 6.89617 37 16.5225 37H29.1351L29.349 36.6873C29.5214 36.4354 29.5631 35.9295 29.5631 34.0846V31.7947H31.1166C32.1416 31.7947 32.7261 31.7373 32.835 31.6259C32.9593 31.4987 33 29.5868 33 23.8847V16.3124L32.6474 16.1752C32.4534 16.0998 31.6801 16.038 30.9289 16.038H29.5631V10.8732V5.70827L26.7703 2.85421L23.9774 0H13.9332C5.6971 0 3.8611 0.0340455 3.73559 0.188798ZM23.2645 2.56749C23.3247 4.30565 23.453 4.69309 24.226 5.47122C24.9112 6.16099 25.4828 6.35598 27.0542 6.43631L28.4633 6.50834V11.2732V16.038H16.5029H4.54244V8.60524C4.54244 4.5171 4.58368 1.13012 4.63413 1.07863C4.68445 1.027 8.88462 0.984791 13.9677 0.984791H23.2095L23.2645 2.56749ZM26.059 3.58C26.9277 4.46574 27.6384 5.22544 27.6384 5.26821C27.6384 5.31098 27.2146 5.34601 26.6964 5.34601C25.6695 5.34601 25.1115 5.0804 24.5716 4.33463C24.2685 3.91567 24.0775 1.96958 24.3397 1.96958C24.4165 1.96958 25.1901 2.69425 26.059 3.58ZM7.96972 6.55364C7.8387 6.71529 7.82867 6.84078 7.93356 7.01087C8.0643 7.22302 8.66067 7.24876 14.2054 7.28183C20.2852 7.31812 20.3335 7.31629 20.4226 7.02887C20.6384 6.33305 20.6183 6.3308 14.1658 6.3308C8.84503 6.3308 8.1296 6.35654 7.96972 6.55364ZM7.97068 9.64757C7.83884 9.8102 7.82867 9.9357 7.93356 10.1059C8.06581 10.3205 8.79567 10.3403 16.5866 10.3403H25.0951V9.91825V9.4962L16.6237 9.4599C9.01729 9.4274 8.13373 9.44654 7.97068 9.64757ZM8.05784 12.6012C7.93906 12.7229 7.84186 12.8767 7.84186 12.943C7.84186 13.0092 7.93906 13.163 8.05784 13.2847C8.24948 13.4807 9.20522 13.5057 16.5015 13.5057C21.0265 13.5057 24.8268 13.4673 24.9464 13.4203C25.251 13.3007 25.2186 12.7014 24.898 12.5258C24.7232 12.4302 21.8281 12.3802 16.453 12.3802C9.20082 12.3802 8.24948 12.4053 8.05784 12.6012ZM32.0377 23.9867V30.8099H16.5716H1.10553V23.9867V17.1635H16.5716H32.0377V23.9867ZM19.665 20.5399C19.6652 20.5786 20.0984 21.3027 20.6276 22.1491C21.1566 22.9954 21.5895 23.7423 21.5895 23.8089C21.5895 23.8753 21.1381 24.6389 20.5866 25.5057C20.0349 26.3726 19.5364 27.161 19.4787 27.2576C19.3995 27.3901 19.562 27.4335 20.137 27.4335H20.9004L21.6645 26.2215C22.0847 25.5549 22.4692 25.0511 22.519 25.102C22.5687 25.153 22.922 25.6825 23.3041 26.2789L23.9987 27.3631L24.7898 27.4053L25.581 27.4477L24.9662 26.4909C23.4407 24.1168 23.3356 23.9095 23.4862 23.5713C23.5643 23.3957 24.0049 22.6576 24.4653 21.9312L25.3023 20.6103L24.58 20.566C24.0173 20.5315 23.8275 20.5741 23.7204 20.759C23.6447 20.8895 23.3437 21.3821 23.0513 21.8535C22.4435 22.8335 22.5209 22.8611 21.6043 21.3383C21.1424 20.571 21.131 20.5631 20.4013 20.5166C19.996 20.4907 19.6647 20.5012 19.665 20.5399ZM7.42944 21.0323V21.5247H8.46051H9.49158V24.4868V27.4489L10.1446 27.406L10.7976 27.3631L10.8347 24.4484L10.8718 21.5339L11.7971 21.5644L12.7223 21.5951L12.7649 21.0675L12.8076 20.5399H10.1185H7.42944V21.0323ZM14.3148 22.4743C13.9109 23.5383 13.3409 25.0327 13.0482 25.7953C12.7555 26.558 12.5161 27.242 12.5161 27.3154C12.5161 27.3889 12.8094 27.4295 13.1681 27.406L13.8202 27.3631L14.0805 26.62L14.3409 25.8768L15.785 25.9166L17.229 25.9563L17.503 26.6949L17.777 27.4335H18.4459C18.8138 27.4335 19.1149 27.39 19.1149 27.3367C19.1149 27.2389 17.6515 23.4384 16.8904 21.5599L16.4772 20.5399H15.7632H15.0492L14.3148 22.4743ZM16.2158 23.2249C16.4494 23.8505 16.6403 24.4519 16.6403 24.5614C16.6403 24.7126 16.4255 24.7605 15.7467 24.7605C15.2553 24.7605 14.8531 24.7036 14.8531 24.6341C14.8531 24.4808 15.6989 22.0875 15.7531 22.0875C15.7741 22.0875 15.9824 22.5993 16.2158 23.2249ZM28.4633 33.8346V35.8745H16.5029H4.54244V33.9284C4.54244 32.858 4.58368 31.94 4.63413 31.8885C4.68445 31.8369 10.0666 31.7947 16.5946 31.7947H28.4633V33.8346Z" fill="url(#paint0_linear_273_3782)"/>
<defs>
<linearGradient id="paint0_linear_273_3782" x1="5.69941e-08" y1="7.31865" x2="32.8804" y2="7.72131" gradientUnits="userSpaceOnUse">
<stop stop-color="#994FFF"/>
<stop offset="1" stop-color="#4AB6FE"/>
</linearGradient>
</defs>
</svg>
