<svg width="38" height="38" viewBox="0 0 38 38" fill="none" xmlns="http://www.w3.org/2000/svg">
<path fill-rule="evenodd" clip-rule="evenodd" d="M17.0179 0.25805C16.9022 0.398549 16.6862 0.812506 16.5376 1.17765C16.3219 1.70849 16.0419 1.93333 15.1406 2.29926C14.0515 2.7414 13.9831 2.74576 13.1079 2.43182L12.2023 2.10677L10.9968 3.29466C10.2781 4.00292 9.82808 4.60282 9.88257 4.78023C9.93268 4.94394 10.0852 5.35413 10.2216 5.69189C10.4384 6.22908 10.4105 6.44737 9.99969 7.43662C9.59541 8.40979 9.40967 8.62054 8.66733 8.94838L7.80467 9.32899L7.86234 11.0731L7.91981 12.8173L8.73732 13.1862C9.40788 13.4888 9.6314 13.7394 9.98021 14.5793C10.4927 15.813 10.4959 15.8894 10.0683 16.784L9.73103 17.4899L10.9073 18.676C12.1452 19.9244 12.4648 20.0411 13.3688 19.5745C13.8763 19.3126 14.0288 19.3289 15.0828 19.7563C16.0707 20.157 16.3002 20.3513 16.6536 21.0857L17.0674 21.9458H18.7577H20.4481L20.8619 21.0857C21.2153 20.3513 21.4447 20.157 22.4327 19.7563C23.4867 19.3289 23.6392 19.3126 24.1467 19.5745C25.0507 20.0411 25.3703 19.9244 26.6082 18.676L27.7844 17.4899L27.4472 16.784C27.0196 15.8894 27.0228 15.813 27.5353 14.5793C27.8841 13.7394 28.1076 13.4888 28.7781 13.1862L29.5957 12.8173L29.6531 11.0731L29.7108 9.32899L28.8481 8.94838C28.1058 8.62054 27.9201 8.40979 27.5158 7.43662C27.1049 6.44737 27.0771 6.22908 27.2938 5.69189C27.4303 5.35413 27.5828 4.94394 27.6329 4.78023C27.6874 4.60282 27.2374 4.00292 26.5187 3.29466L25.3132 2.10677L24.4076 2.43182C23.534 2.74537 23.4628 2.741 22.3935 2.3068C21.4539 1.92539 21.221 1.72397 20.8665 0.986742L20.4481 0.116756L18.8381 0.0596042C17.707 0.0195182 17.1655 0.0784565 17.0179 0.25805ZM20.1293 2.10121C20.3721 2.64892 20.6545 2.99422 20.8595 2.99422C21.0432 2.99422 21.7241 3.23176 22.3726 3.52208C23.527 4.03923 23.566 4.043 24.266 3.70981L24.9809 3.36968L25.6477 4.01462C26.3962 4.73875 26.4413 4.95208 26.0182 5.76868C25.7403 6.30488 25.7588 6.41859 26.3162 7.59438C26.6432 8.28418 26.9108 8.96068 26.9108 9.098C26.911 9.23533 27.269 9.49053 27.7065 9.66536C28.494 9.9797 28.5019 9.99339 28.5019 11.0313C28.5019 12.0691 28.494 12.0828 27.7065 12.3972C27.269 12.572 26.911 12.8272 26.9108 12.9645C26.9108 13.1018 26.6432 13.7783 26.3162 14.4681C25.7588 15.6439 25.7403 15.7576 26.0182 16.2938C26.4407 17.1094 26.396 17.324 25.6538 18.0417L24.9932 18.6807L24.2336 18.364C23.5044 18.06 23.429 18.0669 22.3587 18.5373C21.7454 18.8068 21.0506 19.0846 20.8146 19.1544C20.5598 19.23 20.2579 19.6007 20.0706 20.0681C19.761 20.8398 19.7367 20.8543 18.7434 20.8543C17.7483 20.8543 17.7262 20.841 17.4208 20.0649C17.2378 19.6003 16.9376 19.2245 16.691 19.1515C16.4605 19.0832 15.77 18.8068 15.1568 18.5373C14.0865 18.0669 14.0111 18.06 13.2819 18.364L12.5222 18.6807L11.8616 18.0417C11.1193 17.3238 11.0747 17.1094 11.4977 16.2932C11.7727 15.7626 11.7592 15.6511 11.3142 14.7652C11.0503 14.2395 10.7729 13.5638 10.6977 13.2636C10.5985 12.8665 10.323 12.6125 9.68788 12.3321C8.83815 11.957 8.81468 11.9219 8.81468 11.0313C8.81468 10.1373 8.83556 10.1067 9.70956 9.72092C10.2017 9.50363 10.6044 9.21846 10.6046 9.08709C10.6046 8.95572 10.8723 8.28418 11.1992 7.59438C11.7566 6.41859 11.7751 6.30488 11.4973 5.76868C11.0741 4.95208 11.1193 4.73875 11.8678 4.01462L12.5346 3.36968L13.2495 3.70981C13.9495 4.043 13.9884 4.03923 15.1428 3.52208C15.7913 3.23176 16.4722 2.99422 16.656 2.99422C16.861 2.99422 17.1434 2.64892 17.3862 2.10121C17.7777 1.21793 17.7927 1.20821 18.7577 1.20821C19.7228 1.20821 19.7377 1.21793 20.1293 2.10121ZM16.6405 4.79233C15.1466 5.26483 13.7216 6.47614 12.8838 7.98552C12.3411 8.96326 12.2947 9.20298 12.2949 11.0313C12.2949 12.7966 12.3534 13.1261 12.8239 14.0159C13.4702 15.2377 14.8899 16.5782 16.1375 17.144C17.449 17.7389 20.0664 17.7389 21.3779 17.144C22.6256 16.5782 24.0453 15.2377 24.6916 14.0159C25.1621 13.1261 25.2205 12.7966 25.2205 11.0313C25.2207 9.20298 25.1744 8.96326 24.6317 7.98552C23.7712 6.43526 22.3742 5.26582 20.8056 4.78221C19.2097 4.29046 18.2196 4.29284 16.6405 4.79233ZM21.0918 6.04174C22.1597 6.59501 23.1287 7.56481 23.6799 8.63205C24.1007 9.44707 24.1998 9.91024 24.193 11.0313C24.1831 12.6583 23.8358 13.5696 22.7801 14.738C20.1529 17.6462 15.2023 16.7826 13.6355 13.1427C13.2403 12.2247 13.2045 10.0501 13.5695 9.14603C14.167 7.66523 15.4648 6.38605 16.9179 5.84509C17.8837 5.4855 20.2313 5.59623 21.0918 6.04174ZM18.4024 6.80199C18.2697 6.93415 18.1578 7.13637 18.1534 7.25087C18.1492 7.36538 17.8589 7.63943 17.5083 7.85951C15.6396 9.03271 16.3559 11.2204 18.7327 11.5996C20.1545 11.8264 20.5775 12.7583 19.4939 13.2765C18.7015 13.6555 17.8223 13.4074 17.4566 12.7016C17.132 12.0755 16.4893 11.9268 16.2946 12.4329C16.1071 12.9207 16.7236 13.8934 17.4347 14.2318C17.7909 14.4015 18.1673 14.7329 18.2709 14.9686C18.5159 15.5253 19.0035 15.5163 19.2523 14.9506C19.3603 14.7051 19.5496 14.5041 19.6729 14.5041C20.0549 14.5041 20.9651 13.6839 21.1649 13.1596C21.4145 12.5045 21.0536 11.4057 20.4819 11.0803C20.2444 10.9451 19.5134 10.6556 18.8572 10.4367C17.4631 9.97216 17.1776 9.40817 18.048 8.83903C18.6897 8.41952 19.4378 8.5876 19.8718 9.24843C20.2317 9.79653 20.8953 9.90369 21.0727 9.44211C21.225 9.04641 20.6495 8.19389 19.966 7.80235C19.6649 7.6299 19.337 7.30922 19.2374 7.08993C19.0109 6.59184 18.715 6.48983 18.4024 6.80199ZM1.49461 7.16673C0.38158 7.84383 0.317746 8.22504 0.133402 15.2978C0.0409315 18.8451 -0.0171359 22.0886 0.00453994 22.506C0.0898513 24.1644 0.394308 24.6049 3.88392 28.1206C6.86962 31.1286 7.24785 31.5827 7.18979 32.0895C7.12913 32.6199 7.05576 32.6662 6.18574 32.7221C4.86669 32.8067 4.43974 33.3786 4.43974 35.0606C4.43974 36.4976 4.71655 37.256 5.31512 37.4594C5.54461 37.5372 8.23798 37.5759 11.3004 37.5452C18.0436 37.4773 17.7634 37.5833 17.7634 35.0987C17.7634 33.705 17.7109 33.4844 17.2752 33.0498C16.9708 32.7458 16.5595 32.5626 16.1815 32.5626H15.576L15.574 29.0402C15.5722 25.7702 15.539 25.4467 15.1088 24.5256C14.8167 23.9001 14.2846 23.2438 13.6691 22.7497C13.132 22.3186 11.8871 21.1915 10.9027 20.2445C9.91836 19.2977 8.91749 18.4226 8.67866 18.2995C7.98742 17.9439 7.13669 18.038 6.37446 18.5541L5.6687 19.0322L5.5808 14.2379C5.48336 8.91861 5.36524 8.28458 4.29636 7.34811C3.48878 6.64065 2.46783 6.57457 1.49461 7.16673ZM33.2629 7.30108C32.0906 8.28537 32.0027 8.73386 31.9211 14.1389L31.8474 19.0326L31.1412 18.5543C30.3788 18.038 29.5281 17.9439 28.8368 18.2995C28.598 18.4226 27.5971 19.2977 26.6127 20.2445C25.6284 21.1915 24.3835 22.3186 23.8464 22.7497C23.2309 23.2438 22.6988 23.9001 22.4066 24.5256C21.9765 25.4467 21.9433 25.7702 21.9415 29.0402L21.9395 32.5626H21.334C20.9559 32.5626 20.5447 32.7458 20.2402 33.0498C19.8045 33.4844 19.752 33.705 19.752 35.0987C19.752 37.5833 19.4718 37.4773 26.215 37.5452C29.2775 37.5759 31.9709 37.5372 32.2003 37.4594C32.7989 37.256 33.0757 36.4976 33.0757 35.0606C33.0757 33.3786 32.6488 32.8067 31.3297 32.7221C30.4597 32.6662 30.3863 32.6199 30.3257 32.0895C30.2676 31.5827 30.6458 31.1286 33.6315 28.1206C37.0671 24.6593 37.39 24.2015 37.5012 22.6348C37.528 22.2559 37.4747 18.9988 37.3825 15.3971C37.1987 8.21591 37.1377 7.84601 36.0209 7.16673C35.0789 6.59342 34.0456 6.64383 33.2629 7.30108ZM3.3997 8.0647C4.28423 8.68305 4.33573 9.00156 4.44033 14.5041C4.52843 19.139 4.58431 19.8434 4.91064 20.4421C5.45134 21.434 9.00559 25.0217 9.44746 25.0217C10.3395 25.0217 10.0452 24.391 8.34298 22.655C6.9776 21.2627 6.62721 20.7868 6.62721 20.3243C6.62721 19.5735 6.95016 19.2668 7.74004 19.2668C8.22705 19.2668 8.52733 19.441 9.02329 20.0109C9.37925 20.4203 10.5742 21.5419 11.6787 22.5038C14.4528 24.9193 14.4667 24.9514 14.551 29.1081L14.6198 32.4999L11.6071 32.6354C9.94998 32.71 8.50963 32.719 8.40622 32.6553C8.30281 32.5914 8.2181 32.1639 8.2181 31.7051C8.2181 30.8913 8.14074 30.7946 5.01465 27.6983C2.89697 25.6009 1.67875 24.2354 1.42023 23.6695C1.0408 22.8386 1.03583 22.6052 1.25418 15.7386C1.40571 10.9735 1.55446 8.57331 1.70957 8.38658C1.91003 8.14566 2.53723 7.80751 2.85422 7.76941C2.91209 7.76266 3.15748 7.89542 3.3997 8.0647ZM35.7017 8.32347C36 8.61062 36.067 9.50105 36.2603 15.7386C36.4729 22.5961 36.4673 22.8552 36.0921 23.6764C35.8375 24.2336 34.603 25.6162 32.5008 27.6983C29.3747 30.7946 29.2974 30.8913 29.2974 31.7051C29.2974 32.1639 29.2127 32.5914 29.1092 32.6553C29.0058 32.719 27.574 32.7104 25.9275 32.6364L22.9338 32.5015V29.544C22.9338 25.6323 23.1011 25.0129 24.5016 23.7409C25.108 23.1902 26.4183 21.9583 27.4134 21.0031C29.2423 19.2479 29.6788 19.0316 30.5037 19.4721C30.7566 19.6073 30.8883 19.8877 30.8883 20.2915C30.8883 20.7952 30.58 21.2199 29.1725 22.655C27.4702 24.391 27.1759 25.0217 28.068 25.0217C28.5099 25.0217 32.0641 21.434 32.6048 20.4421C32.9312 19.8434 32.987 19.139 33.0751 14.5041C33.1797 9.00235 33.2314 8.68305 34.1152 8.06529C34.6008 7.72575 35.1789 7.81982 35.7017 8.32347ZM16.6484 34.0672C16.7148 34.2399 16.7691 34.7725 16.7691 35.2509C16.7691 35.9126 16.6757 36.1705 16.3782 36.3295C16.1258 36.4642 14.169 36.5194 10.8598 36.4853L5.73234 36.4323L5.67129 35.3645C5.63768 34.7773 5.65736 34.1744 5.71484 34.0249C5.79975 33.8043 6.82488 33.7533 11.1736 33.7533C15.8725 33.7533 16.5424 33.7918 16.6484 34.0672ZM31.7831 35.1424V36.4323L26.6557 36.4853C23.3465 36.5194 21.3897 36.4642 21.1373 36.3295C20.8398 36.1705 20.7463 35.9126 20.7463 35.2509C20.7463 33.6358 20.3389 33.7406 26.3866 33.7997L31.7831 33.8525V35.1424ZM14.8465 34.8602C14.7803 35.0323 14.8726 35.3194 15.0516 35.498C15.3445 35.7901 15.4077 35.7921 15.6827 35.5178C15.8556 35.3452 15.9327 35.0684 15.8603 34.88C15.6985 34.4589 15.006 34.4454 14.8465 34.8602ZM21.6551 34.88C21.5828 35.0684 21.6599 35.3452 21.8327 35.5178C22.1077 35.7921 22.171 35.7901 22.4639 35.498C22.6429 35.3194 22.7352 35.0323 22.6689 34.8602C22.5094 34.4454 21.817 34.4589 21.6551 34.88Z" fill="url(#paint0_linear_273_3768)"/>
<defs>
<linearGradient id="paint0_linear_273_3768" x1="6.478e-08" y1="7.46677" x2="37.3708" y2="7.97989" gradientUnits="userSpaceOnUse">
<stop stop-color="#994FFF"/>
<stop offset="1" stop-color="#4AB6FE"/>
</linearGradient>
</defs>
</svg>
