<svg width="36" height="40" viewBox="0 0 36 40" fill="none" xmlns="http://www.w3.org/2000/svg">
<mask id="path-1-outside-1_273_3775" maskUnits="userSpaceOnUse" x="0" y="0" width="36" height="40" fill="black">
<rect fill="white" width="36" height="40"/>
<path fill-rule="evenodd" clip-rule="evenodd" d="M11.4236 2.91332L9.5 4.82664V14.0783V23.3299H9.99419H10.4884V14.3196V5.30928H11.8577C13.1016 5.30928 13.2647 5.26207 13.6367 4.79314C13.9538 4.39375 14.0465 3.99495 14.0465 3.03026V1.78351H19.4663C22.4473 1.78351 25.0269 1.83698 25.1989 1.9024C25.4788 2.00876 25.5116 3.14093 25.5116 12.6756V23.3299H26.0058H26.5V12.6811C26.5 2.20444 26.4933 2.02384 26.0902 1.51613L25.6806 1H19.514H13.3471L11.4236 2.91332ZM13.0581 3.52543C13.0581 4.04 12.9565 4.32657 12.7454 4.40688C12.3147 4.57063 11.2791 4.55672 11.2791 4.38709C11.2791 4.19396 12.7077 2.76289 12.9006 2.76289C12.9872 2.76289 13.0581 3.10606 13.0581 3.52543ZM12.7379 6.57307C12.5072 7.16873 12.8875 7.26804 15.4024 7.26804C17.9302 7.26804 18.4817 7.13112 18.2599 6.55858C18.1028 6.15272 12.8955 6.16643 12.7379 6.57307ZM6.28344 9.94293C5.38877 10.768 4.54885 11.6273 4.4168 11.8527C3.9746 12.608 4.1191 13.4493 4.85465 14.4042C5.23517 14.8982 5.54651 15.3775 5.54651 15.4694C5.54651 15.5614 5.28459 16.2088 4.96456 16.9083L4.3826 18.1801L3.30844 18.2898C1.25599 18.4998 1 18.9311 1 22.1789C1 24.4989 1.0085 24.5437 1.55388 25.0842C1.98778 25.5139 2.36652 25.6628 3.30231 25.7703L4.49666 25.9076L5.02169 27.2392C5.31029 27.9716 5.54651 28.6329 5.54651 28.7087C5.54651 28.7845 5.24229 29.2142 4.87066 29.6638C4.07997 30.6198 3.86707 31.2866 4.13887 31.9561C4.24641 32.2213 5.04007 33.1558 5.90252 34.0328C8.03187 36.1984 8.43473 36.2681 10.4676 34.8222L11.2468 34.2678L12.6318 34.8039C14.0916 35.3688 14.2363 35.5489 14.2414 36.8062C14.2448 37.5899 14.7044 38.524 15.2217 38.7982C15.4308 38.9093 16.7147 39 18.0747 39C21.2073 39 21.4702 38.8394 21.7841 36.7341L21.9907 35.3495L23.2075 34.8243C23.8769 34.5354 24.4938 34.299 24.5784 34.299C24.6632 34.299 25.1827 34.6515 25.7328 35.0825C27.4237 36.407 27.7969 36.2801 30.7763 33.3693C32.0683 32.1071 32.1725 31.2396 31.1861 29.9558C30.8279 29.4896 30.4731 29.0078 30.3972 28.8851C30.2693 28.6775 30.9097 26.8341 31.2804 26.344C31.3709 26.2244 31.9635 26.0796 32.5975 26.0228C34.7367 25.8305 35 25.4068 35 22.1564C35 20.0027 34.9652 19.7859 34.5424 19.299C34.184 18.8861 33.7954 18.7245 32.7481 18.5535L31.4112 18.3351L31.0137 17.2577C30.7953 16.6652 30.5703 16.0302 30.5142 15.8466C30.4519 15.6427 30.7069 15.1564 31.1697 14.5969C32.3697 13.1457 32.2719 12.6076 30.4489 10.632C28.6507 8.68305 27.2907 7.90914 27.2907 8.83505C27.2907 9.06423 27.4225 9.2268 27.6084 9.2268C28.0096 9.2268 30.8312 11.9132 31.0677 12.5205C31.274 13.0509 31.0884 13.464 30.1085 14.6549L29.4297 15.4802L30.0295 17.0054C30.3594 17.8446 30.6707 18.6722 30.7217 18.8449C30.7891 19.0743 31.1774 19.1957 32.1614 19.2956C34.1237 19.4948 34.2093 19.6161 34.2093 22.1979C34.2093 23.3734 34.1202 24.5003 34.011 24.702C33.878 24.9484 33.5046 25.1079 32.8744 25.1874C30.9066 25.436 30.6282 25.5127 30.5177 25.8381C30.4559 26.0206 30.139 26.7587 29.8136 27.478L29.2222 28.7858L30.1344 29.8955C30.6958 30.5783 31.0465 31.2 31.0465 31.5122C31.0465 32.1988 28.1717 35.0825 27.4872 35.0825C27.2296 35.0825 26.4958 34.6754 25.857 34.1779L24.695 33.2734L23.3736 33.868C22.6469 34.195 21.875 34.4929 21.6584 34.5301C21.3279 34.5867 21.2306 34.8396 21.0553 36.0952C20.9402 36.9188 20.7285 37.7331 20.585 37.9047C20.3729 38.1577 19.8825 38.2165 17.9804 38.2165C15.2181 38.2165 15.162 38.1759 14.942 36.0233C14.8091 34.7225 14.8018 34.7097 14.0813 34.4837C13.6816 34.3583 12.8443 34.0336 12.2206 33.7621L11.0863 33.2683L10.2438 33.9491C9.1345 34.8453 8.57133 35.1277 8.15443 34.9965C7.66934 34.8439 5.01912 32.1296 4.87047 31.6333C4.78033 31.332 4.99322 30.8886 5.65721 29.9948L6.5675 28.7694L5.98693 27.4697C5.66749 26.755 5.35022 25.9399 5.28183 25.6589C5.16757 25.189 5.04936 25.1365 3.82437 25.0123C1.87214 24.8141 1.7907 24.6959 1.7907 22.0638C1.7907 20.5906 1.87372 19.7665 2.0453 19.5338C2.21866 19.2992 2.73301 19.1356 3.65477 19.0224C4.8932 18.8702 5.33757 18.6422 5.34587 18.1548C5.34745 18.0557 5.62677 17.377 5.96657 16.6466L6.5843 15.3186L5.7689 14.3037C5.30871 13.7312 4.95349 13.0777 4.95349 12.8041C4.95349 12.2247 7.54243 9.47459 8.25445 9.29751C8.52863 9.22935 8.7093 9.0372 8.7093 8.8139C8.7093 8.07348 7.90437 8.4482 6.28344 9.94293ZM12.6628 9.61856C12.6628 9.99758 12.7571 10.0246 13.8983 9.97074C14.8386 9.92628 15.1337 9.84225 15.1337 9.61856C15.1337 9.39487 14.8386 9.31084 13.8983 9.26637C12.7571 9.21251 12.6628 9.23954 12.6628 9.61856ZM16.4186 9.61856C16.4186 10.0095 16.5062 10.0178 20.125 9.96565C23.2639 9.9206 23.8314 9.86732 23.8314 9.61856C23.8314 9.36979 23.2639 9.31651 20.125 9.27146C16.5062 9.21936 16.4186 9.22759 16.4186 9.61856ZM12.733 13.4415C12.5335 13.9564 12.9342 14.15 14.0677 14.0859C14.9817 14.0344 15.1337 13.9699 15.1337 13.634C15.1337 13.2944 14.9821 13.2344 13.9947 13.1835C13.0912 13.1369 12.8304 13.1902 12.733 13.4415ZM16.4937 13.4287C16.2537 14.0487 16.6374 14.1237 20.0477 14.1237C23.4732 14.1237 24.0289 14.0185 23.7948 13.4142C23.6365 13.0053 16.6525 13.0192 16.4937 13.4287ZM12.7946 17.1925C12.7221 17.2642 12.6628 17.4846 12.6628 17.6822C12.6628 17.9907 12.8306 18.0412 13.855 18.0412C14.7658 18.0412 15.076 17.9672 15.1687 17.7276C15.2355 17.5553 15.1659 17.3361 15.0143 17.2409C14.6919 17.0387 12.9874 17.0013 12.7946 17.1925ZM16.5505 17.1925C16.4779 17.2642 16.4186 17.4846 16.4186 17.6822C16.4186 18.0173 16.6608 18.0412 20.0639 18.0412C23.7367 18.0412 24.2287 17.948 23.7254 17.3471C23.5331 17.1175 22.8219 17.0619 20.0843 17.0619C18.2131 17.0619 16.6228 17.1206 16.5505 17.1925ZM12.4651 21.3711C12.4651 21.7502 12.5594 21.7772 13.7006 21.7233C14.6409 21.6789 14.936 21.5948 14.936 21.3711C14.936 21.1474 14.6409 21.0634 13.7006 21.0189C12.5594 20.9651 12.4651 20.9921 12.4651 21.3711ZM16.1221 21.1753C15.8119 21.6726 16.3911 21.7629 19.8896 21.7629C23.403 21.7629 23.5349 21.7488 23.5349 21.3711C23.5349 20.9935 23.403 20.9794 19.8896 20.9794C17.6727 20.9794 16.1964 21.0562 16.1221 21.1753ZM10.029 24.6521C9.91136 24.8501 10.2385 25.6812 10.4326 25.6775C10.8489 25.6692 11.1146 25.3092 10.9905 24.9214C10.8632 24.5242 10.2132 24.3422 10.029 24.6521ZM25.0095 24.9214C24.8854 25.3092 25.1511 25.6692 25.5674 25.6775C25.7615 25.6812 26.0886 24.8501 25.971 24.6521C25.7868 24.3422 25.1368 24.5242 25.0095 24.9214ZM11.3089 26.7221C11.1492 26.9127 11.1739 27.0954 11.4036 27.4202C11.6995 27.839 11.7323 27.8437 12.0913 27.5218C12.444 27.2057 12.4469 27.1605 12.1395 26.8239C11.7489 26.3961 11.5975 26.3775 11.3089 26.7221ZM23.8605 26.8239C23.5531 27.1605 23.556 27.2057 23.9087 27.5218C24.2677 27.8437 24.3005 27.839 24.5964 27.4202C24.8261 27.0954 24.8508 26.9127 24.6911 26.7221C24.4025 26.3775 24.2511 26.3961 23.8605 26.8239ZM13.032 28.3559C12.8144 28.6158 12.8474 28.722 13.2453 29.0413C13.6148 29.3376 13.751 29.3645 13.8783 29.1656C14.1325 28.7686 14.0772 28.5359 13.668 28.2826C13.362 28.0932 13.2402 28.1073 13.032 28.3559ZM22.2674 28.3326C21.9744 28.5478 21.9314 28.7034 22.0755 29.0236L22.2617 29.4369L22.7499 29.0405C23.1842 28.6879 23.2056 28.6111 22.9419 28.3494C22.6847 28.094 22.5951 28.0918 22.2674 28.3326ZM15.1483 29.5327C15.0007 29.9143 15.178 30.127 15.7196 30.2181C15.9732 30.2608 16.1342 30.156 16.1838 29.9153C16.3148 29.281 15.3796 28.9357 15.1483 29.5327ZM20.005 29.3778C19.8398 29.4834 19.7868 29.7049 19.8668 29.9552C19.9702 30.278 20.0863 30.3288 20.4316 30.202C20.6708 30.1145 20.8663 29.8778 20.8663 29.6761C20.8663 29.2691 20.4185 29.1139 20.005 29.3778ZM17.407 30.0876C17.407 30.5011 17.4993 30.5773 18 30.5773C18.5007 30.5773 18.593 30.5011 18.593 30.0876C18.593 29.6741 18.5007 29.5979 18 29.5979C17.4993 29.5979 17.407 29.6741 17.407 30.0876Z"/>
</mask>
<path fill-rule="evenodd" clip-rule="evenodd" d="M11.4236 2.91332L9.5 4.82664V14.0783V23.3299H9.99419H10.4884V14.3196V5.30928H11.8577C13.1016 5.30928 13.2647 5.26207 13.6367 4.79314C13.9538 4.39375 14.0465 3.99495 14.0465 3.03026V1.78351H19.4663C22.4473 1.78351 25.0269 1.83698 25.1989 1.9024C25.4788 2.00876 25.5116 3.14093 25.5116 12.6756V23.3299H26.0058H26.5V12.6811C26.5 2.20444 26.4933 2.02384 26.0902 1.51613L25.6806 1H19.514H13.3471L11.4236 2.91332ZM13.0581 3.52543C13.0581 4.04 12.9565 4.32657 12.7454 4.40688C12.3147 4.57063 11.2791 4.55672 11.2791 4.38709C11.2791 4.19396 12.7077 2.76289 12.9006 2.76289C12.9872 2.76289 13.0581 3.10606 13.0581 3.52543ZM12.7379 6.57307C12.5072 7.16873 12.8875 7.26804 15.4024 7.26804C17.9302 7.26804 18.4817 7.13112 18.2599 6.55858C18.1028 6.15272 12.8955 6.16643 12.7379 6.57307ZM6.28344 9.94293C5.38877 10.768 4.54885 11.6273 4.4168 11.8527C3.9746 12.608 4.1191 13.4493 4.85465 14.4042C5.23517 14.8982 5.54651 15.3775 5.54651 15.4694C5.54651 15.5614 5.28459 16.2088 4.96456 16.9083L4.3826 18.1801L3.30844 18.2898C1.25599 18.4998 1 18.9311 1 22.1789C1 24.4989 1.0085 24.5437 1.55388 25.0842C1.98778 25.5139 2.36652 25.6628 3.30231 25.7703L4.49666 25.9076L5.02169 27.2392C5.31029 27.9716 5.54651 28.6329 5.54651 28.7087C5.54651 28.7845 5.24229 29.2142 4.87066 29.6638C4.07997 30.6198 3.86707 31.2866 4.13887 31.9561C4.24641 32.2213 5.04007 33.1558 5.90252 34.0328C8.03187 36.1984 8.43473 36.2681 10.4676 34.8222L11.2468 34.2678L12.6318 34.8039C14.0916 35.3688 14.2363 35.5489 14.2414 36.8062C14.2448 37.5899 14.7044 38.524 15.2217 38.7982C15.4308 38.9093 16.7147 39 18.0747 39C21.2073 39 21.4702 38.8394 21.7841 36.7341L21.9907 35.3495L23.2075 34.8243C23.8769 34.5354 24.4938 34.299 24.5784 34.299C24.6632 34.299 25.1827 34.6515 25.7328 35.0825C27.4237 36.407 27.7969 36.2801 30.7763 33.3693C32.0683 32.1071 32.1725 31.2396 31.1861 29.9558C30.8279 29.4896 30.4731 29.0078 30.3972 28.8851C30.2693 28.6775 30.9097 26.8341 31.2804 26.344C31.3709 26.2244 31.9635 26.0796 32.5975 26.0228C34.7367 25.8305 35 25.4068 35 22.1564C35 20.0027 34.9652 19.7859 34.5424 19.299C34.184 18.8861 33.7954 18.7245 32.7481 18.5535L31.4112 18.3351L31.0137 17.2577C30.7953 16.6652 30.5703 16.0302 30.5142 15.8466C30.4519 15.6427 30.7069 15.1564 31.1697 14.5969C32.3697 13.1457 32.2719 12.6076 30.4489 10.632C28.6507 8.68305 27.2907 7.90914 27.2907 8.83505C27.2907 9.06423 27.4225 9.2268 27.6084 9.2268C28.0096 9.2268 30.8312 11.9132 31.0677 12.5205C31.274 13.0509 31.0884 13.464 30.1085 14.6549L29.4297 15.4802L30.0295 17.0054C30.3594 17.8446 30.6707 18.6722 30.7217 18.8449C30.7891 19.0743 31.1774 19.1957 32.1614 19.2956C34.1237 19.4948 34.2093 19.6161 34.2093 22.1979C34.2093 23.3734 34.1202 24.5003 34.011 24.702C33.878 24.9484 33.5046 25.1079 32.8744 25.1874C30.9066 25.436 30.6282 25.5127 30.5177 25.8381C30.4559 26.0206 30.139 26.7587 29.8136 27.478L29.2222 28.7858L30.1344 29.8955C30.6958 30.5783 31.0465 31.2 31.0465 31.5122C31.0465 32.1988 28.1717 35.0825 27.4872 35.0825C27.2296 35.0825 26.4958 34.6754 25.857 34.1779L24.695 33.2734L23.3736 33.868C22.6469 34.195 21.875 34.4929 21.6584 34.5301C21.3279 34.5867 21.2306 34.8396 21.0553 36.0952C20.9402 36.9188 20.7285 37.7331 20.585 37.9047C20.3729 38.1577 19.8825 38.2165 17.9804 38.2165C15.2181 38.2165 15.162 38.1759 14.942 36.0233C14.8091 34.7225 14.8018 34.7097 14.0813 34.4837C13.6816 34.3583 12.8443 34.0336 12.2206 33.7621L11.0863 33.2683L10.2438 33.9491C9.1345 34.8453 8.57133 35.1277 8.15443 34.9965C7.66934 34.8439 5.01912 32.1296 4.87047 31.6333C4.78033 31.332 4.99322 30.8886 5.65721 29.9948L6.5675 28.7694L5.98693 27.4697C5.66749 26.755 5.35022 25.9399 5.28183 25.6589C5.16757 25.189 5.04936 25.1365 3.82437 25.0123C1.87214 24.8141 1.7907 24.6959 1.7907 22.0638C1.7907 20.5906 1.87372 19.7665 2.0453 19.5338C2.21866 19.2992 2.73301 19.1356 3.65477 19.0224C4.8932 18.8702 5.33757 18.6422 5.34587 18.1548C5.34745 18.0557 5.62677 17.377 5.96657 16.6466L6.5843 15.3186L5.7689 14.3037C5.30871 13.7312 4.95349 13.0777 4.95349 12.8041C4.95349 12.2247 7.54243 9.47459 8.25445 9.29751C8.52863 9.22935 8.7093 9.0372 8.7093 8.8139C8.7093 8.07348 7.90437 8.4482 6.28344 9.94293ZM12.6628 9.61856C12.6628 9.99758 12.7571 10.0246 13.8983 9.97074C14.8386 9.92628 15.1337 9.84225 15.1337 9.61856C15.1337 9.39487 14.8386 9.31084 13.8983 9.26637C12.7571 9.21251 12.6628 9.23954 12.6628 9.61856ZM16.4186 9.61856C16.4186 10.0095 16.5062 10.0178 20.125 9.96565C23.2639 9.9206 23.8314 9.86732 23.8314 9.61856C23.8314 9.36979 23.2639 9.31651 20.125 9.27146C16.5062 9.21936 16.4186 9.22759 16.4186 9.61856ZM12.733 13.4415C12.5335 13.9564 12.9342 14.15 14.0677 14.0859C14.9817 14.0344 15.1337 13.9699 15.1337 13.634C15.1337 13.2944 14.9821 13.2344 13.9947 13.1835C13.0912 13.1369 12.8304 13.1902 12.733 13.4415ZM16.4937 13.4287C16.2537 14.0487 16.6374 14.1237 20.0477 14.1237C23.4732 14.1237 24.0289 14.0185 23.7948 13.4142C23.6365 13.0053 16.6525 13.0192 16.4937 13.4287ZM12.7946 17.1925C12.7221 17.2642 12.6628 17.4846 12.6628 17.6822C12.6628 17.9907 12.8306 18.0412 13.855 18.0412C14.7658 18.0412 15.076 17.9672 15.1687 17.7276C15.2355 17.5553 15.1659 17.3361 15.0143 17.2409C14.6919 17.0387 12.9874 17.0013 12.7946 17.1925ZM16.5505 17.1925C16.4779 17.2642 16.4186 17.4846 16.4186 17.6822C16.4186 18.0173 16.6608 18.0412 20.0639 18.0412C23.7367 18.0412 24.2287 17.948 23.7254 17.3471C23.5331 17.1175 22.8219 17.0619 20.0843 17.0619C18.2131 17.0619 16.6228 17.1206 16.5505 17.1925ZM12.4651 21.3711C12.4651 21.7502 12.5594 21.7772 13.7006 21.7233C14.6409 21.6789 14.936 21.5948 14.936 21.3711C14.936 21.1474 14.6409 21.0634 13.7006 21.0189C12.5594 20.9651 12.4651 20.9921 12.4651 21.3711ZM16.1221 21.1753C15.8119 21.6726 16.3911 21.7629 19.8896 21.7629C23.403 21.7629 23.5349 21.7488 23.5349 21.3711C23.5349 20.9935 23.403 20.9794 19.8896 20.9794C17.6727 20.9794 16.1964 21.0562 16.1221 21.1753ZM10.029 24.6521C9.91136 24.8501 10.2385 25.6812 10.4326 25.6775C10.8489 25.6692 11.1146 25.3092 10.9905 24.9214C10.8632 24.5242 10.2132 24.3422 10.029 24.6521ZM25.0095 24.9214C24.8854 25.3092 25.1511 25.6692 25.5674 25.6775C25.7615 25.6812 26.0886 24.8501 25.971 24.6521C25.7868 24.3422 25.1368 24.5242 25.0095 24.9214ZM11.3089 26.7221C11.1492 26.9127 11.1739 27.0954 11.4036 27.4202C11.6995 27.839 11.7323 27.8437 12.0913 27.5218C12.444 27.2057 12.4469 27.1605 12.1395 26.8239C11.7489 26.3961 11.5975 26.3775 11.3089 26.7221ZM23.8605 26.8239C23.5531 27.1605 23.556 27.2057 23.9087 27.5218C24.2677 27.8437 24.3005 27.839 24.5964 27.4202C24.8261 27.0954 24.8508 26.9127 24.6911 26.7221C24.4025 26.3775 24.2511 26.3961 23.8605 26.8239ZM13.032 28.3559C12.8144 28.6158 12.8474 28.722 13.2453 29.0413C13.6148 29.3376 13.751 29.3645 13.8783 29.1656C14.1325 28.7686 14.0772 28.5359 13.668 28.2826C13.362 28.0932 13.2402 28.1073 13.032 28.3559ZM22.2674 28.3326C21.9744 28.5478 21.9314 28.7034 22.0755 29.0236L22.2617 29.4369L22.7499 29.0405C23.1842 28.6879 23.2056 28.6111 22.9419 28.3494C22.6847 28.094 22.5951 28.0918 22.2674 28.3326ZM15.1483 29.5327C15.0007 29.9143 15.178 30.127 15.7196 30.2181C15.9732 30.2608 16.1342 30.156 16.1838 29.9153C16.3148 29.281 15.3796 28.9357 15.1483 29.5327ZM20.005 29.3778C19.8398 29.4834 19.7868 29.7049 19.8668 29.9552C19.9702 30.278 20.0863 30.3288 20.4316 30.202C20.6708 30.1145 20.8663 29.8778 20.8663 29.6761C20.8663 29.2691 20.4185 29.1139 20.005 29.3778ZM17.407 30.0876C17.407 30.5011 17.4993 30.5773 18 30.5773C18.5007 30.5773 18.593 30.5011 18.593 30.0876C18.593 29.6741 18.5007 29.5979 18 29.5979C17.4993 29.5979 17.407 29.6741 17.407 30.0876Z" fill="url(#paint0_linear_273_3775)"/>
<path fill-rule="evenodd" clip-rule="evenodd" d="M11.4236 2.91332L9.5 4.82664V14.0783V23.3299H9.99419H10.4884V14.3196V5.30928H11.8577C13.1016 5.30928 13.2647 5.26207 13.6367 4.79314C13.9538 4.39375 14.0465 3.99495 14.0465 3.03026V1.78351H19.4663C22.4473 1.78351 25.0269 1.83698 25.1989 1.9024C25.4788 2.00876 25.5116 3.14093 25.5116 12.6756V23.3299H26.0058H26.5V12.6811C26.5 2.20444 26.4933 2.02384 26.0902 1.51613L25.6806 1H19.514H13.3471L11.4236 2.91332ZM13.0581 3.52543C13.0581 4.04 12.9565 4.32657 12.7454 4.40688C12.3147 4.57063 11.2791 4.55672 11.2791 4.38709C11.2791 4.19396 12.7077 2.76289 12.9006 2.76289C12.9872 2.76289 13.0581 3.10606 13.0581 3.52543ZM12.7379 6.57307C12.5072 7.16873 12.8875 7.26804 15.4024 7.26804C17.9302 7.26804 18.4817 7.13112 18.2599 6.55858C18.1028 6.15272 12.8955 6.16643 12.7379 6.57307ZM6.28344 9.94293C5.38877 10.768 4.54885 11.6273 4.4168 11.8527C3.9746 12.608 4.1191 13.4493 4.85465 14.4042C5.23517 14.8982 5.54651 15.3775 5.54651 15.4694C5.54651 15.5614 5.28459 16.2088 4.96456 16.9083L4.3826 18.1801L3.30844 18.2898C1.25599 18.4998 1 18.9311 1 22.1789C1 24.4989 1.0085 24.5437 1.55388 25.0842C1.98778 25.5139 2.36652 25.6628 3.30231 25.7703L4.49666 25.9076L5.02169 27.2392C5.31029 27.9716 5.54651 28.6329 5.54651 28.7087C5.54651 28.7845 5.24229 29.2142 4.87066 29.6638C4.07997 30.6198 3.86707 31.2866 4.13887 31.9561C4.24641 32.2213 5.04007 33.1558 5.90252 34.0328C8.03187 36.1984 8.43473 36.2681 10.4676 34.8222L11.2468 34.2678L12.6318 34.8039C14.0916 35.3688 14.2363 35.5489 14.2414 36.8062C14.2448 37.5899 14.7044 38.524 15.2217 38.7982C15.4308 38.9093 16.7147 39 18.0747 39C21.2073 39 21.4702 38.8394 21.7841 36.7341L21.9907 35.3495L23.2075 34.8243C23.8769 34.5354 24.4938 34.299 24.5784 34.299C24.6632 34.299 25.1827 34.6515 25.7328 35.0825C27.4237 36.407 27.7969 36.2801 30.7763 33.3693C32.0683 32.1071 32.1725 31.2396 31.1861 29.9558C30.8279 29.4896 30.4731 29.0078 30.3972 28.8851C30.2693 28.6775 30.9097 26.8341 31.2804 26.344C31.3709 26.2244 31.9635 26.0796 32.5975 26.0228C34.7367 25.8305 35 25.4068 35 22.1564C35 20.0027 34.9652 19.7859 34.5424 19.299C34.184 18.8861 33.7954 18.7245 32.7481 18.5535L31.4112 18.3351L31.0137 17.2577C30.7953 16.6652 30.5703 16.0302 30.5142 15.8466C30.4519 15.6427 30.7069 15.1564 31.1697 14.5969C32.3697 13.1457 32.2719 12.6076 30.4489 10.632C28.6507 8.68305 27.2907 7.90914 27.2907 8.83505C27.2907 9.06423 27.4225 9.2268 27.6084 9.2268C28.0096 9.2268 30.8312 11.9132 31.0677 12.5205C31.274 13.0509 31.0884 13.464 30.1085 14.6549L29.4297 15.4802L30.0295 17.0054C30.3594 17.8446 30.6707 18.6722 30.7217 18.8449C30.7891 19.0743 31.1774 19.1957 32.1614 19.2956C34.1237 19.4948 34.2093 19.6161 34.2093 22.1979C34.2093 23.3734 34.1202 24.5003 34.011 24.702C33.878 24.9484 33.5046 25.1079 32.8744 25.1874C30.9066 25.436 30.6282 25.5127 30.5177 25.8381C30.4559 26.0206 30.139 26.7587 29.8136 27.478L29.2222 28.7858L30.1344 29.8955C30.6958 30.5783 31.0465 31.2 31.0465 31.5122C31.0465 32.1988 28.1717 35.0825 27.4872 35.0825C27.2296 35.0825 26.4958 34.6754 25.857 34.1779L24.695 33.2734L23.3736 33.868C22.6469 34.195 21.875 34.4929 21.6584 34.5301C21.3279 34.5867 21.2306 34.8396 21.0553 36.0952C20.9402 36.9188 20.7285 37.7331 20.585 37.9047C20.3729 38.1577 19.8825 38.2165 17.9804 38.2165C15.2181 38.2165 15.162 38.1759 14.942 36.0233C14.8091 34.7225 14.8018 34.7097 14.0813 34.4837C13.6816 34.3583 12.8443 34.0336 12.2206 33.7621L11.0863 33.2683L10.2438 33.9491C9.1345 34.8453 8.57133 35.1277 8.15443 34.9965C7.66934 34.8439 5.01912 32.1296 4.87047 31.6333C4.78033 31.332 4.99322 30.8886 5.65721 29.9948L6.5675 28.7694L5.98693 27.4697C5.66749 26.755 5.35022 25.9399 5.28183 25.6589C5.16757 25.189 5.04936 25.1365 3.82437 25.0123C1.87214 24.8141 1.7907 24.6959 1.7907 22.0638C1.7907 20.5906 1.87372 19.7665 2.0453 19.5338C2.21866 19.2992 2.73301 19.1356 3.65477 19.0224C4.8932 18.8702 5.33757 18.6422 5.34587 18.1548C5.34745 18.0557 5.62677 17.377 5.96657 16.6466L6.5843 15.3186L5.7689 14.3037C5.30871 13.7312 4.95349 13.0777 4.95349 12.8041C4.95349 12.2247 7.54243 9.47459 8.25445 9.29751C8.52863 9.22935 8.7093 9.0372 8.7093 8.8139C8.7093 8.07348 7.90437 8.4482 6.28344 9.94293ZM12.6628 9.61856C12.6628 9.99758 12.7571 10.0246 13.8983 9.97074C14.8386 9.92628 15.1337 9.84225 15.1337 9.61856C15.1337 9.39487 14.8386 9.31084 13.8983 9.26637C12.7571 9.21251 12.6628 9.23954 12.6628 9.61856ZM16.4186 9.61856C16.4186 10.0095 16.5062 10.0178 20.125 9.96565C23.2639 9.9206 23.8314 9.86732 23.8314 9.61856C23.8314 9.36979 23.2639 9.31651 20.125 9.27146C16.5062 9.21936 16.4186 9.22759 16.4186 9.61856ZM12.733 13.4415C12.5335 13.9564 12.9342 14.15 14.0677 14.0859C14.9817 14.0344 15.1337 13.9699 15.1337 13.634C15.1337 13.2944 14.9821 13.2344 13.9947 13.1835C13.0912 13.1369 12.8304 13.1902 12.733 13.4415ZM16.4937 13.4287C16.2537 14.0487 16.6374 14.1237 20.0477 14.1237C23.4732 14.1237 24.0289 14.0185 23.7948 13.4142C23.6365 13.0053 16.6525 13.0192 16.4937 13.4287ZM12.7946 17.1925C12.7221 17.2642 12.6628 17.4846 12.6628 17.6822C12.6628 17.9907 12.8306 18.0412 13.855 18.0412C14.7658 18.0412 15.076 17.9672 15.1687 17.7276C15.2355 17.5553 15.1659 17.3361 15.0143 17.2409C14.6919 17.0387 12.9874 17.0013 12.7946 17.1925ZM16.5505 17.1925C16.4779 17.2642 16.4186 17.4846 16.4186 17.6822C16.4186 18.0173 16.6608 18.0412 20.0639 18.0412C23.7367 18.0412 24.2287 17.948 23.7254 17.3471C23.5331 17.1175 22.8219 17.0619 20.0843 17.0619C18.2131 17.0619 16.6228 17.1206 16.5505 17.1925ZM12.4651 21.3711C12.4651 21.7502 12.5594 21.7772 13.7006 21.7233C14.6409 21.6789 14.936 21.5948 14.936 21.3711C14.936 21.1474 14.6409 21.0634 13.7006 21.0189C12.5594 20.9651 12.4651 20.9921 12.4651 21.3711ZM16.1221 21.1753C15.8119 21.6726 16.3911 21.7629 19.8896 21.7629C23.403 21.7629 23.5349 21.7488 23.5349 21.3711C23.5349 20.9935 23.403 20.9794 19.8896 20.9794C17.6727 20.9794 16.1964 21.0562 16.1221 21.1753ZM10.029 24.6521C9.91136 24.8501 10.2385 25.6812 10.4326 25.6775C10.8489 25.6692 11.1146 25.3092 10.9905 24.9214C10.8632 24.5242 10.2132 24.3422 10.029 24.6521ZM25.0095 24.9214C24.8854 25.3092 25.1511 25.6692 25.5674 25.6775C25.7615 25.6812 26.0886 24.8501 25.971 24.6521C25.7868 24.3422 25.1368 24.5242 25.0095 24.9214ZM11.3089 26.7221C11.1492 26.9127 11.1739 27.0954 11.4036 27.4202C11.6995 27.839 11.7323 27.8437 12.0913 27.5218C12.444 27.2057 12.4469 27.1605 12.1395 26.8239C11.7489 26.3961 11.5975 26.3775 11.3089 26.7221ZM23.8605 26.8239C23.5531 27.1605 23.556 27.2057 23.9087 27.5218C24.2677 27.8437 24.3005 27.839 24.5964 27.4202C24.8261 27.0954 24.8508 26.9127 24.6911 26.7221C24.4025 26.3775 24.2511 26.3961 23.8605 26.8239ZM13.032 28.3559C12.8144 28.6158 12.8474 28.722 13.2453 29.0413C13.6148 29.3376 13.751 29.3645 13.8783 29.1656C14.1325 28.7686 14.0772 28.5359 13.668 28.2826C13.362 28.0932 13.2402 28.1073 13.032 28.3559ZM22.2674 28.3326C21.9744 28.5478 21.9314 28.7034 22.0755 29.0236L22.2617 29.4369L22.7499 29.0405C23.1842 28.6879 23.2056 28.6111 22.9419 28.3494C22.6847 28.094 22.5951 28.0918 22.2674 28.3326ZM15.1483 29.5327C15.0007 29.9143 15.178 30.127 15.7196 30.2181C15.9732 30.2608 16.1342 30.156 16.1838 29.9153C16.3148 29.281 15.3796 28.9357 15.1483 29.5327ZM20.005 29.3778C19.8398 29.4834 19.7868 29.7049 19.8668 29.9552C19.9702 30.278 20.0863 30.3288 20.4316 30.202C20.6708 30.1145 20.8663 29.8778 20.8663 29.6761C20.8663 29.2691 20.4185 29.1139 20.005 29.3778ZM17.407 30.0876C17.407 30.5011 17.4993 30.5773 18 30.5773C18.5007 30.5773 18.593 30.5011 18.593 30.0876C18.593 29.6741 18.5007 29.5979 18 29.5979C17.4993 29.5979 17.407 29.6741 17.407 30.0876Z" stroke="url(#paint1_linear_273_3775)" stroke-width="0.6" mask="url(#path-1-outside-1_273_3775)"/>
<defs>
<linearGradient id="paint0_linear_273_3775" x1="1" y1="8.51645" x2="34.8768" y2="8.93264" gradientUnits="userSpaceOnUse">
<stop stop-color="#994FFF"/>
<stop offset="1" stop-color="#4AB6FE"/>
</linearGradient>
<linearGradient id="paint1_linear_273_3775" x1="1" y1="8.51645" x2="34.8768" y2="8.93264" gradientUnits="userSpaceOnUse">
<stop stop-color="#994FFF"/>
<stop offset="1" stop-color="#4AB6FE"/>
</linearGradient>
</defs>
</svg>
