<svg width="51" height="51" viewBox="0 0 51 51" fill="none" xmlns="http://www.w3.org/2000/svg">
<g filter="url(#filter0_b_273_3080)">
<rect x="0.257812" y="0.746338" width="50" height="50" rx="25" fill="white"/>
<rect x="0.757812" y="1.24634" width="49" height="49" rx="24.5" stroke="url(#paint0_linear_273_3080)"/>
<path d="M25.2578 15.1735C25.0175 15.1735 24.787 15.2689 24.617 15.4389C24.447 15.6089 24.3516 15.8394 24.3516 16.0797C24.3516 16.3201 24.447 16.5506 24.617 16.7205C24.787 16.8905 25.0175 16.986 25.2578 16.986C26.4082 16.986 27.5474 17.2126 28.6103 17.6528C29.6731 18.0931 30.6389 18.7383 31.4524 19.5518C32.2658 20.3653 32.9111 21.331 33.3514 22.3939C33.7916 23.4568 34.0182 24.5959 34.0182 25.7464C34.0182 26.8968 33.7916 28.036 33.3514 29.0988C32.9111 30.1617 32.2658 31.1274 31.4524 31.9409C30.6389 32.7544 29.6731 33.3997 28.6103 33.8399C27.5474 34.2802 26.4082 34.5068 25.2578 34.5068C25.0175 34.5068 24.787 34.6023 24.617 34.7722C24.447 34.9422 24.3516 35.1727 24.3516 35.413C24.3516 35.6534 24.447 35.8839 24.617 36.0539C24.787 36.2238 25.0175 36.3193 25.2578 36.3193C28.0619 36.3193 30.7512 35.2054 32.734 33.2226C34.7168 31.2398 35.8307 28.5505 35.8307 25.7464C35.8307 22.9423 34.7168 20.253 32.734 18.2702C30.7512 16.2874 28.0619 15.1735 25.2578 15.1735Z" fill="url(#paint1_linear_273_3080)"/>
<path d="M23.4078 22.7618C23.2477 22.59 23.1605 22.3628 23.1647 22.128C23.1688 21.8932 23.2639 21.6692 23.43 21.5032C23.596 21.3371 23.82 21.242 24.0548 21.2379C24.2896 21.2337 24.5168 21.3209 24.6886 21.481L28.3136 25.106C28.4833 25.2759 28.5786 25.5062 28.5786 25.7464C28.5786 25.9865 28.4833 26.2169 28.3136 26.3868L24.6886 30.0118C24.6056 30.1008 24.5056 30.1722 24.3944 30.2218C24.2832 30.2713 24.1632 30.2979 24.0416 30.3001C23.9199 30.3022 23.799 30.2799 23.6862 30.2343C23.5733 30.1887 23.4708 30.1209 23.3848 30.0348C23.2987 29.9487 23.2309 29.8462 23.1853 29.7334C23.1397 29.6205 23.1173 29.4997 23.1195 29.378C23.1216 29.2563 23.1482 29.1363 23.1978 29.0251C23.2473 28.914 23.3187 28.8139 23.4078 28.731L25.4861 26.6526H15.5898C15.3495 26.6526 15.119 26.5571 14.949 26.3872C14.7791 26.2172 14.6836 25.9867 14.6836 25.7464C14.6836 25.506 14.7791 25.2755 14.949 25.1056C15.119 24.9356 15.3495 24.8401 15.5898 24.8401H25.4861L23.4078 22.7618Z" fill="url(#paint2_linear_273_3080)"/>
</g>
<defs>
<filter id="filter0_b_273_3080" x="-49.7422" y="-49.2537" width="150" height="150" filterUnits="userSpaceOnUse" color-interpolation-filters="sRGB">
<feFlood flood-opacity="0" result="BackgroundImageFix"/>
<feGaussianBlur in="BackgroundImageFix" stdDeviation="25"/>
<feComposite in2="SourceAlpha" operator="in" result="effect1_backgroundBlur_273_3080"/>
<feBlend mode="normal" in="SourceGraphic" in2="effect1_backgroundBlur_273_3080" result="shape"/>
</filter>
<linearGradient id="paint0_linear_273_3080" x1="0.257813" y1="10.6364" x2="50.0748" y2="11.3204" gradientUnits="userSpaceOnUse">
<stop stop-color="#994FFF"/>
<stop offset="1" stop-color="#4AB6FE"/>
</linearGradient>
<linearGradient id="paint1_linear_273_3080" x1="38.5862" y1="5.5824" x2="19.1521" y2="16.7719" gradientUnits="userSpaceOnUse">
<stop stop-color="#FBC524"/>
<stop offset="0.52" stop-color="#E939D9"/>
<stop offset="1" stop-color="#2ABAE9"/>
</linearGradient>
<linearGradient id="paint2_linear_273_3080" x1="31.914" y1="17.1273" x2="23.3196" y2="31.1035" gradientUnits="userSpaceOnUse">
<stop stop-color="#FBC524"/>
<stop offset="0.52" stop-color="#E939D9"/>
<stop offset="1" stop-color="#2ABAE9"/>
</linearGradient>
</defs>
</svg>
