<svg width="171" height="56" viewBox="0 0 171 56" fill="none" xmlns="http://www.w3.org/2000/svg">
<path d="M45.3601 5.54432L15.6572 5.53418C11.6485 5.53273 9.64124 10.3791 12.4746 13.2139C13.321 14.0603 14.4688 14.5342 15.6659 14.5313L36.4195 14.4849L36.3731 35.2385C36.3702 36.4356 36.8441 37.5835 37.6905 38.4298C40.5253 41.2646 45.3717 39.2559 45.3702 35.2472L45.3601 5.54432Z" fill="black" fill-opacity="0.8"/>
<path d="M29.9804 17.8226L17.2934 30.5096C16.4543 31.3472 16.4543 32.7067 17.2934 33.5458C17.7123 33.9646 18.2615 34.1748 18.8108 34.1748C19.3601 34.1748 19.9094 33.9646 20.3282 33.5458L33.0151 20.8588C33.8528 20.0197 33.8528 18.6617 33.0151 17.8226C32.1789 16.9849 30.8195 16.9849 29.9804 17.8226Z" fill="black" fill-opacity="0.8"/>
<path d="M21.5038 17.4716C20.6661 16.6325 19.3067 16.6325 18.4676 17.4716L5.7806 30.1586C4.94292 30.9977 4.94292 32.3557 5.7806 33.1948C6.19945 33.6137 6.74872 33.8238 7.298 33.8238C7.84727 33.8238 8.39655 33.6137 8.81539 33.1948L21.5023 20.5079C22.3415 19.6687 22.3415 18.3093 21.5038 17.4716Z" fill="black" fill-opacity="0.8"/>
<path d="M29.7449 29.182L17.0579 41.8689C16.2203 42.7066 16.2203 44.066 17.0579 44.9052C17.4768 45.324 18.0261 45.5341 18.5753 45.5341C19.1246 45.5341 19.6739 45.324 20.0927 44.9052L32.7797 32.2182C33.6188 31.3805 33.6188 30.0211 32.7797 29.182C31.942 28.3443 30.5826 28.3443 29.7449 29.182Z" fill="black" fill-opacity="0.8"/>
<path d="M45.3601 5.54432L15.6572 5.53418C11.6485 5.53273 9.64124 10.3791 12.4746 13.2139C13.321 14.0603 14.4688 14.5342 15.6659 14.5313L36.4195 14.4849L36.3731 35.2385C36.3702 36.4356 36.8441 37.5835 37.6905 38.4298C40.5253 41.2646 45.3717 39.2559 45.3702 35.2472L45.3601 5.54432Z" fill="url(#paint0_linear_273_2026)"/>
<path d="M29.9804 17.8226L17.2934 30.5096C16.4543 31.3472 16.4543 32.7067 17.2934 33.5458C17.7123 33.9646 18.2615 34.1748 18.8108 34.1748C19.3601 34.1748 19.9094 33.9646 20.3282 33.5458L33.0151 20.8588C33.8528 20.0197 33.8528 18.6617 33.0151 17.8226C32.1789 16.9849 30.8195 16.9849 29.9804 17.8226Z" fill="url(#paint1_linear_273_2026)"/>
<path d="M21.5038 17.4716C20.6661 16.6325 19.3067 16.6325 18.4676 17.4716L5.7806 30.1586C4.94292 30.9977 4.94292 32.3557 5.7806 33.1948C6.19945 33.6137 6.74872 33.8238 7.298 33.8238C7.84727 33.8238 8.39655 33.6137 8.81539 33.1948L21.5023 20.5079C22.3415 19.6687 22.3415 18.3093 21.5038 17.4716Z" fill="url(#paint2_linear_273_2026)"/>
<path d="M29.7449 29.182L17.0579 41.8689C16.2203 42.7066 16.2203 44.066 17.0579 44.9052C17.4768 45.324 18.0261 45.5341 18.5753 45.5341C19.1246 45.5341 19.6739 45.324 20.0927 44.9052L32.7797 32.2182C33.6188 31.3805 33.6188 30.0211 32.7797 29.182C31.942 28.3443 30.5826 28.3443 29.7449 29.182Z" fill="url(#paint3_linear_273_2026)"/>
<path d="M85.5036 13.2686L81.2582 29.0642L76.6956 13.2686H73.6346L69.0439 29.0642L64.7985 13.2686H61.3047L67.022 33.4831H70.8627L75.1659 18.7265L79.4394 33.4831H83.2801L88.9974 13.2686H85.5036Z" fill="black"/>
<path d="M96.4791 18.6689C94.3415 18.6689 92.5426 19.4007 91.079 20.8643C89.5972 22.3478 88.8555 24.1467 88.8555 26.2645C88.8555 28.3822 89.5972 30.1828 91.079 31.6646C92.5426 33.1282 94.3415 33.86 96.4791 33.86C98.6167 33.86 100.416 33.1282 101.879 31.6646C103.361 30.1828 104.103 28.3822 104.103 26.2645C104.103 24.1467 103.361 22.3478 101.879 20.8643C100.416 19.4007 98.615 18.6689 96.4791 18.6689ZM99.6838 29.527C98.8182 30.3926 97.7494 30.8271 96.4791 30.8271C95.2087 30.8271 94.14 30.3943 93.2743 29.527C92.4087 28.6597 91.9743 27.5728 91.9743 26.2645C91.9743 24.9561 92.4071 23.8675 93.2743 23.0019C94.14 22.1363 95.2087 21.7019 96.4791 21.7019C97.7494 21.7019 98.8182 22.1347 99.6838 23.0019C100.551 23.8675 100.984 24.9561 100.984 26.2645C100.984 27.5744 100.549 28.6614 99.6838 29.527Z" fill="black"/>
<path d="M110.049 21.4705V19.0455H106.93V33.4832H110.049V26.2065C110.049 24.7248 110.491 23.6659 111.377 23.0299C112.282 22.3758 113.321 22.0867 114.495 22.1643V18.7861C112.318 18.7845 110.836 19.6798 110.049 21.4705Z" fill="black"/>
<path d="M129.338 19.0453H125.525L119.924 25.4267V13.2686H116.805V33.4831H119.924V26.8126L125.842 33.4831H129.567L122.985 26.1188L129.338 19.0453Z" fill="black"/>
<path d="M143.663 26.5814C143.663 27.8335 143.291 28.8197 142.551 29.5416C141.809 30.2635 140.736 30.6252 139.331 30.6252C137.926 30.6252 136.852 30.2635 136.112 29.5416C135.37 28.8197 135 27.8335 135 26.5814V13.2686H131.68V26.7829C131.68 28.9205 132.392 30.6434 133.817 31.9517C135.223 33.2221 137.062 33.8581 139.333 33.8581C141.604 33.8581 143.443 33.2221 144.849 31.9517C146.273 30.6434 146.986 28.9188 146.986 26.7829V13.2686H143.666V26.5814H143.663Z" fill="black"/>
<path d="M163.849 20.8924C162.423 19.4107 160.73 18.6689 158.766 18.6689C156.57 18.6689 154.887 19.4883 153.713 21.1237V19.0439H150.594V39.2584H153.713V31.4333C154.905 33.0505 156.59 33.8583 158.766 33.8583C160.748 33.8583 162.443 33.1265 163.849 31.6629C165.253 30.1993 165.957 28.4004 165.957 26.2628C165.957 24.1467 165.255 22.356 163.849 20.8924ZM161.539 29.5848C160.672 30.4504 159.585 30.8849 158.277 30.8849C156.967 30.8849 155.88 30.4521 155.014 29.5848C154.149 28.6796 153.714 27.5728 153.714 26.2645C153.714 24.9363 154.147 23.8394 155.014 22.9722C155.88 22.0868 156.968 21.644 158.277 21.644C159.585 21.644 160.674 22.0868 161.539 22.9722C162.405 23.8378 162.839 24.9363 162.839 26.2645C162.839 27.5926 162.405 28.6994 161.539 29.5848Z" fill="black"/>
<defs>
<linearGradient id="paint0_linear_273_2026" x1="45.9945" y1="4.76967" x2="16.1599" y2="34.8392" gradientUnits="userSpaceOnUse">
<stop stop-color="#FBCB24"/>
<stop offset="0.5168" stop-color="#E939D9"/>
<stop offset="1" stop-color="#2ABAE9"/>
</linearGradient>
<linearGradient id="paint1_linear_273_2026" x1="33.9531" y1="16.815" x2="19.1498" y2="31.7342" gradientUnits="userSpaceOnUse">
<stop stop-color="#FBCB24"/>
<stop offset="0.5168" stop-color="#E939D9"/>
<stop offset="1" stop-color="#2ABAE9"/>
</linearGradient>
<linearGradient id="paint2_linear_273_2026" x1="22.4416" y1="16.4629" x2="7.63735" y2="31.3823" gradientUnits="userSpaceOnUse">
<stop stop-color="#FBCB24"/>
<stop offset="0.5168" stop-color="#E939D9"/>
<stop offset="1" stop-color="#2ABAE9"/>
</linearGradient>
<linearGradient id="paint3_linear_273_2026" x1="33.7188" y1="28.1744" x2="18.9155" y2="43.0936" gradientUnits="userSpaceOnUse">
<stop stop-color="#FBCB24"/>
<stop offset="0.5168" stop-color="#E939D9"/>
<stop offset="1" stop-color="#2ABAE9"/>
</linearGradient>
</defs>
</svg>
