<svg width="51" height="51" viewBox="0 0 51 51" fill="none" xmlns="http://www.w3.org/2000/svg">
<g filter="url(#filter0_b_273_3099)">
<rect x="0.757812" y="1.24634" width="49" height="49" rx="24.5" stroke="url(#paint0_linear_273_3099)"/>
<g clip-path="url(#clip0_273_3099)">
<path fill-rule="evenodd" clip-rule="evenodd" d="M24.0508 16.0796C23.5747 16.0796 23.1034 16.1734 22.6636 16.3556C22.2237 16.5377 21.8241 16.8048 21.4875 17.1414C21.1509 17.478 20.8839 17.8776 20.7017 18.3174C20.5195 18.7572 20.4258 19.2286 20.4258 19.7046C20.4258 20.1807 20.5195 20.6521 20.7017 21.0919C20.8839 21.5317 21.1509 21.9313 21.4875 22.2679C21.8241 22.6045 22.2237 22.8715 22.6636 23.0537C23.1034 23.2359 23.5747 23.3296 24.0508 23.3296C25.0122 23.3296 25.9342 22.9477 26.614 22.2679C27.2939 21.5881 27.6758 20.666 27.6758 19.7046C27.6758 18.7432 27.2939 17.8212 26.614 17.1414C25.9342 16.4615 25.0122 16.0796 24.0508 16.0796ZM18.0091 19.7046C18.0091 18.1023 18.6456 16.5656 19.7787 15.4325C20.9117 14.2995 22.4484 13.663 24.0508 13.663C25.6531 13.663 27.1899 14.2995 28.3229 15.4325C29.4559 16.5656 30.0924 18.1023 30.0924 19.7046C30.0924 21.307 29.4559 22.8437 28.3229 23.9767C27.1899 25.1098 25.6531 25.7463 24.0508 25.7463C22.4484 25.7463 20.9117 25.1098 19.7787 23.9767C18.6456 22.8437 18.0091 21.307 18.0091 19.7046ZM16.0915 32.5142C15.7012 33.0096 15.5924 33.3842 15.5924 33.6005C15.5924 33.7479 15.6372 33.9038 15.9006 34.1152C16.2014 34.3569 16.7247 34.607 17.5246 34.8185C19.1172 35.2414 21.4057 35.413 24.0508 35.413C24.319 35.413 24.5837 35.4105 24.8459 35.4069C25.1663 35.4026 25.4754 35.5258 25.7051 35.7493C25.9347 35.9728 26.0662 36.2785 26.0705 36.5989C26.0748 36.9194 25.9517 37.2285 25.7281 37.4581C25.5046 37.6878 25.199 37.8193 24.8785 37.8236C24.6054 37.8272 24.3287 37.8296 24.0508 37.8296C21.3574 37.8296 18.8127 37.6605 16.9059 37.1554C15.9574 36.904 15.0644 36.544 14.3877 36.0002C13.6712 35.425 13.1758 34.6215 13.1758 33.6005C13.1758 32.6495 13.6084 31.7602 14.1956 31.0158C14.7925 30.2606 15.6178 29.5658 16.5857 28.9738C18.5227 27.7932 21.1568 26.9546 24.0508 26.9546C24.5909 26.9546 25.1226 26.9836 25.6409 27.0392C25.9597 27.073 26.2519 27.2321 26.4533 27.4813C26.6548 27.7306 26.749 28.0497 26.7152 28.3684C26.6813 28.6871 26.5223 28.9793 26.273 29.1808C26.0238 29.3822 25.7047 29.4764 25.386 29.4426C24.951 29.3955 24.5039 29.3713 24.0508 29.3713C21.6063 29.3713 19.4072 30.0842 17.8448 31.0376C17.063 31.5137 16.4721 32.0308 16.0915 32.5142ZM32.8909 28.2246C32.6431 28.142 32.3751 28.142 32.1273 28.2246L28.5023 29.4329C28.2616 29.5131 28.0522 29.667 27.9039 29.8728C27.7555 30.0786 27.6757 30.3259 27.6758 30.5796V32.5988C27.6756 33.8912 28.1521 35.1383 29.014 36.1015C29.8759 37.0646 31.0626 37.676 32.3472 37.8188C32.4559 37.8308 32.5635 37.8308 32.671 37.8188C33.9556 37.676 35.1424 37.0646 36.0043 36.1015C36.8662 35.1383 37.3426 33.8912 37.3424 32.5988V30.5796C37.3425 30.3259 37.2627 30.0786 37.1144 29.8728C36.966 29.667 36.7567 29.5131 36.5159 29.4329L32.8909 28.2246ZM30.0924 32.5988V31.4508L32.5091 30.6449L34.9258 31.4508V32.5988C34.9258 34.0089 33.8927 35.1967 32.5091 35.4033C31.8372 35.3031 31.2237 34.965 30.7801 34.4505C30.3366 33.936 30.0925 33.2793 30.0924 32.6V32.5988Z" fill="url(#paint1_linear_273_3099)"/>
</g>
</g>
<defs>
<filter id="filter0_b_273_3099" x="-49.7422" y="-49.2537" width="150" height="150" filterUnits="userSpaceOnUse" color-interpolation-filters="sRGB">
<feFlood flood-opacity="0" result="BackgroundImageFix"/>
<feGaussianBlur in="BackgroundImageFix" stdDeviation="25"/>
<feComposite in2="SourceAlpha" operator="in" result="effect1_backgroundBlur_273_3099"/>
<feBlend mode="normal" in="SourceGraphic" in2="effect1_backgroundBlur_273_3099" result="shape"/>
</filter>
<linearGradient id="paint0_linear_273_3099" x1="0.257813" y1="10.6364" x2="50.0748" y2="11.3204" gradientUnits="userSpaceOnUse">
<stop stop-color="#994FFF"/>
<stop offset="1" stop-color="#4AB6FE"/>
</linearGradient>
<linearGradient id="paint1_linear_273_3099" x1="43.1434" y1="2.70175" x2="17.5062" y2="29.8932" gradientUnits="userSpaceOnUse">
<stop stop-color="#FBC524"/>
<stop offset="0.52" stop-color="#E939D9"/>
<stop offset="1" stop-color="#2ABAE9"/>
</linearGradient>
<clipPath id="clip0_273_3099">
<rect width="29" height="29" fill="white" transform="translate(10.7578 11.2463)"/>
</clipPath>
</defs>
</svg>
